<?xml version="1.0" encoding="utf-8"?>
<!-- Generator: Adobe Illustrator 25.0.1, SVG Export Plug-In . SVG Version: 6.00 Build 0)  -->
<svg version="1.2" baseProfile="tiny" id="Camada_1"
	 xmlns="http://www.w3.org/2000/svg" xmlns:xlink="http://www.w3.org/1999/xlink" x="0px" y="0px" viewBox="0 0 100 100"
	 overflow="visible" xml:space="preserve">
<g id="VERMELHO">
	<circle fill="#F02E2E" cx="50" cy="50" r="48.72"/>
	<g>
		<g>
			<g>
				<path fill="#FFFFFF" d="M75.55,62.41L54.04,26.73c-0.85-1.41-2.39-2.28-4.04-2.28s-3.19,0.87-4.04,2.28L24.45,62.41
					c-0.88,1.45-0.9,3.27-0.07,4.75s2.41,2.39,4.1,2.39h43.03c1.7,0,3.27-0.92,4.1-2.39C76.45,65.68,76.43,63.86,75.55,62.41z
					 M72.64,65.48c-0.23,0.41-0.66,0.66-1.13,0.66H28.49c-0.47,0-0.9-0.25-1.13-0.66s-0.22-0.91,0.02-1.31l21.51-35.68
					c0.23-0.39,0.66-0.63,1.11-0.63s0.88,0.24,1.11,0.63l21.51,35.68C72.87,64.57,72.87,65.07,72.64,65.48z"/>
			</g>
		</g>
		<g>
			<g>
				<path fill="#FFFFFF" d="M50.02,38.5c-1.3,0-2.31,0.7-2.31,1.93c0,3.77,0.44,9.19,0.44,12.96c0,0.98,0.86,1.39,1.87,1.39
					c0.76,0,1.84-0.41,1.84-1.39c0-3.77,0.44-9.19,0.44-12.96C52.3,39.19,51.25,38.5,50.02,38.5z"/>
			</g>
		</g>
		<g>
			<g>
				<path fill="#FFFFFF" d="M50.05,56.97c-1.39,0-2.44,1.11-2.44,2.44c0,1.3,1.05,2.44,2.44,2.44c1.3,0,2.41-1.14,2.41-2.44
					C52.46,58.08,51.35,56.97,50.05,56.97z"/>
			</g>
		</g>
	</g>
</g>
</svg>
