<?xml version="1.0" encoding="utf-8"?>
<!-- Generator: Adobe Illustrator 25.0.1, SVG Export Plug-In . SVG Version: 6.00 Build 0)  -->
<svg version="1.1" id="Camada_1" xmlns="http://www.w3.org/2000/svg" xmlns:xlink="http://www.w3.org/1999/xlink" x="0px" y="0px"
	 viewBox="0 0 20 20" style="enable-background:new 0 0 20 20;" xml:space="preserve">
<style type="text/css">
	.st0{fill:#F02E2E;}
	.st1{fill:#FFFFFF;}
</style>
<g id="VERMELHO">
	<circle class="st0" cx="10" cy="10" r="10"/>
	<g>
		<g>
			<g>
				<path class="st1" d="M15.2,12.6l-4.4-7.3C10.7,5,10.4,4.8,10,4.8S9.4,4.9,9.2,5.2l-4.4,7.3c-0.2,0.3-0.2,0.7,0,1
					C4.9,13.8,5.2,14,5.6,14h8.8c0.4,0,0.7-0.2,0.8-0.5C15.4,13.2,15.4,12.8,15.2,12.6z M14.6,13.2c0,0.1-0.1,0.1-0.2,0.1H5.6
					c-0.1,0-0.2,0-0.2-0.1c0-0.1,0-0.2,0-0.3l4.4-7.3c0-0.1,0.1-0.1,0.2-0.1s0.2,0,0.2,0.1l4.4,7.3C14.7,13,14.7,13.1,14.6,13.2z"/>
			</g>
		</g>
		<g>
			<g>
				<path class="st1" d="M10,7.6C9.7,7.6,9.5,7.8,9.5,8c0,0.8,0.1,1.9,0.1,2.7c0,0.2,0.2,0.3,0.4,0.3c0.2,0,0.4-0.1,0.4-0.3
					c0-0.8,0.1-1.9,0.1-2.7C10.5,7.8,10.2,7.6,10,7.6z"/>
			</g>
		</g>
		<g>
			<g>
				<path class="st1" d="M10,11.4c-0.3,0-0.5,0.2-0.5,0.5s0.2,0.5,0.5,0.5c0.3,0,0.5-0.2,0.5-0.5C10.5,11.6,10.3,11.4,10,11.4z"/>
			</g>
		</g>
	</g>
</g>
</svg>
