<?xml version="1.0" encoding="utf-8"?>
<!-- Generator: Adobe Illustrator 25.0.1, SVG Export Plug-In . SVG Version: 6.00 Build 0)  -->
<svg version="1.2" baseProfile="tiny" id="Camada_1"
	 xmlns="http://www.w3.org/2000/svg" xmlns:xlink="http://www.w3.org/1999/xlink" x="0px" y="0px" viewBox="0 0 100 100"
	 overflow="visible" xml:space="preserve">
<g id="AZUL">
	<circle fill="#007BC2" cx="50" cy="50" r="48.72"/>
	<g>
		<path fill="#FFFFFF" d="M56.43,69.15H43.29v-1.82c0.42-0.04,0.86-0.07,1.31-0.11s0.84-0.11,1.17-0.22
			c0.52-0.17,0.9-0.45,1.15-0.87c0.25-0.41,0.37-0.95,0.37-1.61V47.74c0-0.59-0.13-1.12-0.4-1.61s-0.64-0.9-1.12-1.23
			c-0.35-0.22-0.85-0.41-1.52-0.56c-0.66-0.16-1.27-0.25-1.82-0.29v-1.82l9.6-0.61l0.4,0.38v22.18c0,0.64,0.12,1.18,0.37,1.6
			s0.63,0.74,1.16,0.94c0.4,0.17,0.79,0.3,1.18,0.4c0.38,0.1,0.81,0.17,1.29,0.21V69.15z M52.98,30.88c0,1.05-0.34,1.96-1.04,2.75
			c-0.69,0.78-1.54,1.17-2.55,1.17c-0.94,0-1.75-0.37-2.44-1.12c-0.69-0.74-1.03-1.6-1.03-2.55c0-1.01,0.34-1.89,1.03-2.65
			c0.69-0.75,1.5-1.13,2.44-1.13c1.05,0,1.91,0.35,2.58,1.06C52.64,29.12,52.98,29.94,52.98,30.88z"/>
	</g>
</g>
</svg>
