<?xml version="1.0" encoding="utf-8"?>
<!-- Generator: Adobe Illustrator 25.0.1, SVG Export Plug-In . SVG Version: 6.00 Build 0)  -->
<svg version="1.1" id="Camada_1" xmlns="http://www.w3.org/2000/svg" xmlns:xlink="http://www.w3.org/1999/xlink" x="0px" y="0px"
	 viewBox="0 0 20 20" style="enable-background:new 0 0 20 20;" xml:space="preserve">
<style type="text/css">
	.st0{fill:#007BC2;}
	.st1{fill:#FFFFFF;}
</style>
<g id="AZUL">
	<circle class="st0" cx="10" cy="10" r="10"/>
	<g>
		<path class="st1" d="M11.3,13.9H8.6v-0.4c0.1,0,0.2,0,0.3,0c0.1,0,0.2,0,0.2,0c0.1,0,0.2-0.1,0.2-0.2c0-0.1,0.1-0.2,0.1-0.3V9.6
			c0-0.1,0-0.2-0.1-0.3C9.4,9.1,9.3,9,9.2,9C9.1,9,9,8.9,8.8,8.9c-0.1,0-0.3,0-0.4,0V8.4l2-0.1l0.1,0.1v4.6c0,0.1,0,0.2,0.1,0.3
			c0,0.1,0.1,0.2,0.2,0.2c0.1,0,0.2,0.1,0.2,0.1c0.1,0,0.2,0,0.3,0L11.3,13.9L11.3,13.9z M10.6,6.1c0,0.2-0.1,0.4-0.2,0.6
			c-0.2,0.2-0.3,0.2-0.5,0.2S9.5,6.8,9.4,6.6S9.2,6.3,9.2,6.1c0-0.2,0.1-0.4,0.2-0.6c0.2-0.2,0.3-0.2,0.5-0.2s0.4,0.1,0.5,0.2
			C10.6,5.7,10.6,5.9,10.6,6.1z"/>
	</g>
</g>
</svg>
