<?xml version="1.0" encoding="utf-8"?>
<!-- Generator: Adobe Illustrator 25.0.1, SVG Export Plug-In . SVG Version: 6.00 Build 0)  -->
<svg version="1.2" baseProfile="tiny" id="Camada_1"
	 xmlns="http://www.w3.org/2000/svg" xmlns:xlink="http://www.w3.org/1999/xlink" x="0px" y="0px" viewBox="0 0 100 100"
	 overflow="visible" xml:space="preserve">
<g id="LARANJA">
	<circle fill="#F0672B" cx="50" cy="50" r="48.72"/>
	<g>
		<g>
			<path fill="#FFFFFF" d="M62.99,27.3c-3.01,0-5.77,0.95-8.2,2.83c-2.33,1.8-3.88,4.1-4.8,5.77c-0.91-1.67-2.47-3.97-4.8-5.77
				c-2.43-1.88-5.19-2.83-8.2-2.83c-8.4,0-14.73,6.87-14.73,15.97c0,9.84,7.9,16.57,19.86,26.76c2.03,1.73,4.33,3.69,6.72,5.78
				c0.32,0.28,0.72,0.43,1.14,0.43s0.83-0.15,1.14-0.43c2.39-2.09,4.69-4.05,6.73-5.79C69.81,59.83,77.71,53.1,77.71,43.26
				C77.72,34.17,71.39,27.3,62.99,27.3z"/>
		</g>
	</g>
</g>
</svg>
