<?xml version="1.0" encoding="utf-8"?>
<!-- Generator: Adobe Illustrator 25.0.1, SVG Export Plug-In . SVG Version: 6.00 Build 0)  -->
<svg version="1.1" id="Camada_1" xmlns="http://www.w3.org/2000/svg" xmlns:xlink="http://www.w3.org/1999/xlink" x="0px" y="0px"
	 viewBox="0 0 20 20" style="enable-background:new 0 0 20 20;" xml:space="preserve">
<style type="text/css">
	.st0{fill:#F0672B;}
	.st1{fill:#FFFFFF;}
</style>
<g id="LARANJA">
	<circle class="st0" cx="10" cy="10" r="10"/>
	<g>
		<g>
			<path class="st1" d="M12.7,5.4c-0.6,0-1.2,0.2-1.7,0.6c-0.5,0.4-0.8,0.8-1,1.2C9.8,6.8,9.5,6.4,9,6C8.5,5.6,7.9,5.4,7.3,5.4
				c-1.7,0-3,1.4-3,3.3c0,2,1.6,3.4,4.1,5.5c0.4,0.4,0.9,0.8,1.4,1.2c0.1,0,0.2,0.1,0.2,0.1s0.2,0,0.2-0.1c0.5-0.4,1-0.8,1.4-1.2
				c2.4-2.1,4.1-3.5,4.1-5.5C15.7,6.8,14.4,5.4,12.7,5.4z"/>
		</g>
	</g>
</g>
</svg>
