<?xml version="1.0" encoding="utf-8"?>
<!-- Generator: Adobe Illustrator 25.0.1, SVG Export Plug-In . SVG Version: 6.00 Build 0)  -->
<svg version="1.2" baseProfile="tiny" id="Camada_1"
	 xmlns="http://www.w3.org/2000/svg" xmlns:xlink="http://www.w3.org/1999/xlink" x="0px" y="0px" viewBox="0 0 20 20"
	 overflow="visible" xml:space="preserve">
<g id="AMARELO">
	<circle fill="#F0D62E" cx="10" cy="10" r="10"/>
	<g>
		<path fill="#FFFFFF" d="M10.86,13.12c0,0.23-0.08,0.42-0.25,0.58c-0.16,0.16-0.36,0.24-0.59,0.24c-0.23,0-0.42-0.08-0.59-0.24
			c-0.16-0.16-0.25-0.35-0.25-0.58c0-0.23,0.08-0.42,0.25-0.59c0.16-0.17,0.36-0.25,0.59-0.25c0.23,0,0.42,0.08,0.59,0.25
			C10.78,12.7,10.86,12.9,10.86,13.12z M10.81,5.78c0,0.2-0.07,0.88-0.2,2.05c-0.13,1.16-0.25,2.28-0.35,3.37H9.78
			c-0.09-1.08-0.2-2.21-0.33-3.37c-0.13-1.16-0.2-1.84-0.2-2.05c0-0.23,0.07-0.43,0.22-0.58c0.15-0.16,0.33-0.24,0.56-0.24
			c0.23,0,0.41,0.08,0.56,0.23S10.81,5.55,10.81,5.78z"/>
	</g>
</g>
</svg>
