<svg id="Layer_1" data-name="Layer 1" xmlns="http://www.w3.org/2000/svg" viewBox="0 0 600 160"><defs><style>.cls-1{fill:#fff;}</style></defs><path class="cls-1" d="M121.47,135.28H33.73a11.36,11.36,0,0,1-4.5-.92,11.51,11.51,0,0,1-3.69-2.49,11.68,11.68,0,0,1-2.49-3.68,11.56,11.56,0,0,1-.91-4.5V35.94a11.6,11.6,0,0,1,.91-4.5,11.91,11.91,0,0,1,2.49-3.68,11.67,11.67,0,0,1,3.69-2.49,11.35,11.35,0,0,1,4.5-.91h87.74a11.38,11.38,0,0,1,4.5.91,11.62,11.62,0,0,1,7.09,10.67v87.75a11.62,11.62,0,0,1-11.59,11.59ZM23.22,118H46.35q2-6.72,4.06-13.41l4.05-13.33c1.35-4.47,2.69-8.94,4-13.41s2.68-8.91,4.06-13.35h.17l6,28.51L82.79,55.75a52.25,52.25,0,0,0-1.17-6.58,10.56,10.56,0,0,0-1-2.93,10.2,10.2,0,0,0-2.6-3,12.51,12.51,0,0,0-8-2.74H46.65Q34.92,79.26,23.22,118ZM132,40.48H108.82q-2,6.72-4.06,13.41c-1.34,4.45-2.7,8.89-4,13.33S98,76.16,96.66,80.63,94,89.54,92.6,94h-.17l-6-28.51L72.38,102.68a53.81,53.81,0,0,0,1.17,6.58,10.27,10.27,0,0,0,1,2.93,9.92,9.92,0,0,0,2.6,3,12.43,12.43,0,0,0,8,2.74h23.37ZM337.74,95.3h8.7l-8.78,29.06h-8.81Zm29.34,16.85,5.15-16.85h8.35l-8.7,29.06H361.5l-4.1-20.21-6.08,20.21h-8.63l8.74-29.06h8.74a4.92,4.92,0,0,1,1.41.21,4.49,4.49,0,0,1,2.28,1.58,3.16,3.16,0,0,1,.56,1.25Zm41.84-10h-7.25L395,124.36h-8.82l6.79-22.2a38,38,0,0,0-4.94.14,12.33,12.33,0,0,0-3.08.68,5.88,5.88,0,0,0-1.89,1.13,15.35,15.35,0,0,0-1.33,1.45.43.43,0,0,1-.48.15c-.2,0-.27-.17-.22-.35.86-1.64,1.7-3.09,2.54-4.37a13.45,13.45,0,0,1,2.9-3.22,11.66,11.66,0,0,1,3.94-2,19.82,19.82,0,0,1,5.68-.62v.08h15Zm41.41,13.93h-5.39l-2.49,8.27H434L442.8,95.3h14.71a11.63,11.63,0,0,1,3,.39,8.12,8.12,0,0,1,2.65,1.21A6.64,6.64,0,0,1,465,99a5.69,5.69,0,0,1,.74,2.93,16.14,16.14,0,0,1-.65,4.52,15.12,15.12,0,0,1-1.93,4.18,17.13,17.13,0,0,1-2.12,2.67,10.64,10.64,0,0,1-2.72,2l3,9h-8.19Zm.7-6a8.31,8.31,0,0,0,1.81-.16,4.27,4.27,0,0,0,1.21-.42,3.18,3.18,0,0,0,.82-.65l.69-.76a7.45,7.45,0,0,0,1.38-2.18,6.77,6.77,0,0,0,.49-2.58,2.86,2.86,0,0,0-.18-1,3.24,3.24,0,0,0-.49-.92,2.42,2.42,0,0,0-.76-.66,2,2,0,0,0-1-.26h-5.38l-2.89,9.56Zm37.65,2,5.15-16.85h8.34l-8.7,29.06H483.1L479,104.15l-6.08,20.21h-8.63L473,95.3h8.74a4.92,4.92,0,0,1,1.41.21,4.6,4.6,0,0,1,1.28.62,4.81,4.81,0,0,1,1,1,3.16,3.16,0,0,1,.56,1.25Zm68.77-10H550.2l-6.71,22.2h-8.82l6.79-22.2a38,38,0,0,0-4.94.14,12.44,12.44,0,0,0-3.08.68,5.88,5.88,0,0,0-1.89,1.13,15.35,15.35,0,0,0-1.33,1.45.43.43,0,0,1-.48.15c-.2,0-.27-.17-.22-.35.86-1.64,1.7-3.09,2.54-4.37a13.45,13.45,0,0,1,2.9-3.22,11.66,11.66,0,0,1,3.94-2,19.86,19.86,0,0,1,5.68-.62v.08h15Zm-119.72-7H426.56c-2.07,0-4.14,0-6.22,0a15.23,15.23,0,0,0-3,.32c-2.94.61-6,7.92-6.05,8a50.66,50.66,0,0,0-3.17,9.89,16.3,16.3,0,0,0-.45,3.26,12.07,12.07,0,0,0,.32,3.17,7.36,7.36,0,0,0,1.68,3.18,5.12,5.12,0,0,0,3.3,1.61c1.05.12,2.1.2,3.16.27a47.67,47.67,0,0,0,5.07.11c1.26,0,2.53-.09,3.78-.18,1-.07,2-.19,3-.31.51,0,1-.14,1.55-.21l2.07-7.17s-.07,0-.1,0l-.18,0a40.78,40.78,0,0,1-7.06.68,32.78,32.78,0,0,1-3.71-.15c-.78-.07-1.55-.18-2.32-.28a1.22,1.22,0,0,1-.65-.3,1.54,1.54,0,0,1-.62-1.61c.14-.7.33-1.38.52-2.07.12-.4.22-.81.33-1.24h11.06c.19-.64.38-1.25.57-1.87s.39-1.24.58-1.87.39-1.21.56-1.86h-.35l-6.91,0c-1.17,0-2.34,0-3.5.07a1,1,0,0,1-.17,0,.38.38,0,0,1,.05-.11,7.54,7.54,0,0,0,.58-1.26c.19-.45.39-.9.61-1.34a4.35,4.35,0,0,1,.87-1.17,1.74,1.74,0,0,1,1-.49,3.63,3.63,0,0,1,.57,0h12.32Zm92.56,0H519.12c-2.07,0-4.14,0-6.21,0a15.23,15.23,0,0,0-3,.32c-2.94.61-6,7.92-6,8a50.66,50.66,0,0,0-3.17,9.89,16.3,16.3,0,0,0-.45,3.26,11.66,11.66,0,0,0,.32,3.17,7.26,7.26,0,0,0,1.68,3.18,5.1,5.1,0,0,0,3.3,1.61c1.05.12,2.1.2,3.16.27a47.61,47.61,0,0,0,5.07.11c1.26,0,2.52-.09,3.78-.18,1-.07,2-.19,3-.31.51,0,1-.14,1.55-.21l2.07-7.17s-.08,0-.1,0l-.18,0a40.8,40.8,0,0,1-7.07.68,32.7,32.7,0,0,1-3.7-.15c-.78-.07-1.55-.18-2.33-.28a1.26,1.26,0,0,1-.65-.3,1.55,1.55,0,0,1-.61-1.61c.14-.7.33-1.38.52-2.07.12-.4.21-.81.33-1.24h11l.58-1.87c.19-.62.39-1.24.58-1.87s.39-1.21.56-1.86h-.35l-6.91,0c-1.17,0-2.34,0-3.5.07a1,1,0,0,1-.17,0l0-.11a7.59,7.59,0,0,0,.59-1.26c.19-.45.39-.9.61-1.34a4.15,4.15,0,0,1,.87-1.17,1.74,1.74,0,0,1,1-.49,3.63,3.63,0,0,1,.57,0h12.31Zm-245-59.62q-10,0-20,0c-3.85,0-7.69,0-11.54,0a28.56,28.56,0,0,0-5.6.6C242.63,37.3,236.9,50.88,236.85,51A93.75,93.75,0,0,0,231,69.35a30.93,30.93,0,0,0-.84,6.05,21.93,21.93,0,0,0,.6,5.88,13.47,13.47,0,0,0,3.11,5.9,9.46,9.46,0,0,0,6.13,3c1.95.21,3.91.37,5.86.5a92.69,92.69,0,0,0,9.43.21c2.34-.08,4.68-.18,7-.35,1.86-.13,3.71-.36,5.57-.57.94-.1,1.89-.26,2.88-.4q1.9-6.64,3.83-13.31a1,1,0,0,0-.18,0l-.33,0a77,77,0,0,1-13.12,1.28,65.73,65.73,0,0,1-6.88-.28c-1.45-.14-2.88-.35-4.32-.54a2.47,2.47,0,0,1-1.21-.54,2.86,2.86,0,0,1-1.13-3c.25-1.3.6-2.58,1-3.85.21-.75.4-1.51.61-2.31h20.53c.36-1.18.71-2.32,1.07-3.46s.72-2.31,1.07-3.47.73-2.26,1-3.46H272l-12.83-.07c-2.17,0-4.34-.07-6.5.13h-.31a1.94,1.94,0,0,1,.08-.21,14.62,14.62,0,0,0,1.09-2.34c.35-.84.72-1.67,1.13-2.48a8,8,0,0,1,1.61-2.18,3.33,3.33,0,0,1,1.81-.91,6.17,6.17,0,0,1,1-.06H282l3.94-13Zm56,9A10.12,10.12,0,0,0,337,38.76a20.64,20.64,0,0,0-2.29-1.29,23.82,23.82,0,0,0-8.22-2c-1.72-.14-3.44-.17-5.16-.21a81,81,0,0,0-10.33.28,39.6,39.6,0,0,0-8.8,1.9,21.29,21.29,0,0,0-6,3.1A13,13,0,0,0,291.88,46c-1.42,3.44-2.74,6.91-3.91,10.43a98,98,0,0,0-4.68,19.24,17.67,17.67,0,0,0-.07,4.3,9.74,9.74,0,0,0,3.66,6.59,12.83,12.83,0,0,0,3.35,1.92,29.84,29.84,0,0,0,9.23,1.9c1.88.11,3.77.13,5,.17a77.87,77.87,0,0,0,7.88-.29c2.06-.2,4.12-.47,6.17-.75a19.07,19.07,0,0,0,6.64-2.17,16.4,16.4,0,0,0,7.37-7.84,114.43,114.43,0,0,0,5.85-16.77,134.18,134.18,0,0,0,3.1-15.12A6.82,6.82,0,0,0,341.26,44.54Zm-16.8,6a108.91,108.91,0,0,1-3.39,12.94q-1.87,5.66-4.17,11.15a5.59,5.59,0,0,0-.26.72,4.35,4.35,0,0,1-1.76,2.48,9.42,9.42,0,0,1-3.62,1.43,29.47,29.47,0,0,1-5.14.42,12.2,12.2,0,0,1-2.34,0,6.33,6.33,0,0,1-1.94-.64,4.29,4.29,0,0,1-2.11-4.84A139.33,139.33,0,0,1,304.24,58c.9-2.63,1.87-5.22,2.81-7.83a5.16,5.16,0,0,1,2.22-2.73A10.34,10.34,0,0,1,313.58,46c1-.12,2-.16,2.82-.22a20.24,20.24,0,0,1,5.06.59,6.32,6.32,0,0,1,1.16.45A3.09,3.09,0,0,1,324.46,50.58ZM201.09,66.81a.53.53,0,0,1-.18-.32l-1.83-9.43c-1-5.09-2-10.17-2.94-15.26a6.67,6.67,0,0,0-2.53-4.14,8.65,8.65,0,0,0-5.54-1.91H171.79q-8.17,27-16.32,54h16.11Q173,85,174.41,80.36c.93-3.09,1.88-6.19,2.81-9.28s1.88-6.23,2.83-9.34,1.86-6.21,2.83-9.3H183q3.81,18.63,7.6,37.26H210q8.12-27,16.24-53.94h-15.6ZM396.71,42.47a12.91,12.91,0,0,0-6.58-5.38,20.65,20.65,0,0,0-7.62-1.34h-27.3q-8.19,27-16.39,54h15.74Q356.9,82,359.22,74.4h10.07q2.63,7.68,5.23,15.29h15.3c-1.84-5.61-3.68-11.17-5.51-16.75l.35-.21a20.61,20.61,0,0,0,4.73-3.63,31.72,31.72,0,0,0,5-6.68,28.5,28.5,0,0,0,3.68-15.61A9.23,9.23,0,0,0,396.71,42.47Zm-17.66,17.1c-.32.35-.65.7-1,1.06a6.74,6.74,0,0,1-4,2.31,14.68,14.68,0,0,1-3.23.31H363l-.45,0c1.8-5.92,3.58-11.8,5.38-17.73h9.91a4.09,4.09,0,0,1,3.33,1.6,5.89,5.89,0,0,1,1.33,4A12.82,12.82,0,0,1,379.05,59.57Zm134-19.17a12.78,12.78,0,0,0-5.28-3.51,23,23,0,0,0-7.71-1.2h-29.4q-8,27.08-16,54.13h.6l17.66,0,19,0a12.74,12.74,0,0,0,3.08-.38,16.29,16.29,0,0,0,5.8-3A27.63,27.63,0,0,0,505.94,81a19.2,19.2,0,0,0,2.61-4.71,130.23,130.23,0,0,0,4.2-12.8,110.83,110.83,0,0,0,2.92-12.71,15.2,15.2,0,0,0,.17-4.15A11,11,0,0,0,513.05,40.4ZM500.57,51.82c-.43,2.18-1.05,4.31-1.68,6.43-1.51,5.07-3.18,10.09-5.16,15a13.9,13.9,0,0,1-1.58,2.94,5.22,5.22,0,0,1-3.64,2.24,21.45,21.45,0,0,1-3,.28c-3.66,0-7.31,0-11,0l-.4,0,9.61-33.22h.56c3.89,0,7.79,0,11.68,0a4,4,0,0,1,3.44,1.72A5.68,5.68,0,0,1,500.57,51.82ZM577,35.56q-10,0-20,0c-3.84,0-7.69,0-11.53,0a28.58,28.58,0,0,0-5.61.6C534.36,37.3,528.63,50.88,528.59,51a93.11,93.11,0,0,0-5.89,18.36,31.7,31.7,0,0,0-.84,6.05,22.35,22.35,0,0,0,.6,5.88,13.47,13.47,0,0,0,3.12,5.91,9.45,9.45,0,0,0,6.13,3c1.95.21,3.9.37,5.86.5a92.5,92.5,0,0,0,9.42.21c2.34-.08,4.68-.18,7-.34,1.86-.14,3.71-.37,5.57-.57.54-.07,1.09-.14,1.65-.23l4.07-13.41a76.52,76.52,0,0,1-12.64,1.2,65.84,65.84,0,0,1-6.88-.28c-1.44-.14-2.88-.35-4.32-.54a2.35,2.35,0,0,1-1.2-.54,2.87,2.87,0,0,1-1.14-3c.26-1.3.61-2.58,1-3.85.21-.75.39-1.51.6-2.31h20.53c.37-1.18.72-2.32,1.07-3.46s.72-2.31,1.07-3.47.73-2.25,1-3.46h-.65l-12.83-.07c-2.17,0-4.34-.07-6.5.13h-.31a1.94,1.94,0,0,1,.08-.21,14.67,14.67,0,0,0,1.1-2.34c.34-.84.71-1.67,1.12-2.48A7.84,7.84,0,0,1,548,49.5a3.27,3.27,0,0,1,1.8-.91,6.17,6.17,0,0,1,1-.06h22.87l3-10c.3-1,.59-2,.89-2.95ZM426.76,54.16c.35-.84.72-1.67,1.12-2.48a8,8,0,0,1,1.62-2.18,3.33,3.33,0,0,1,1.81-.91,6.11,6.11,0,0,1,1.05-.06h22.87l3.94-13H438.43c-3.85,0-7.69,0-11.54,0a28.56,28.56,0,0,0-5.6.6C415.84,37.3,410.11,50.88,410.06,51a93.75,93.75,0,0,0-5.88,18.36,30.93,30.93,0,0,0-.84,6.05,21.54,21.54,0,0,0,.6,5.88,13.56,13.56,0,0,0,3.11,5.91,9.5,9.5,0,0,0,6.13,3c1.95.21,3.91.37,5.86.5a92.56,92.56,0,0,0,9.42.21c2.35-.08,4.69-.18,7-.34,1.86-.13,3.71-.37,5.56-.57.95-.11,1.9-.27,2.88-.41l3.84-13.31-.18,0-.33,0a77.14,77.14,0,0,1-13.12,1.28,66,66,0,0,1-6.89-.28c-1.44-.14-2.87-.35-4.31-.54a2.34,2.34,0,0,1-1.21-.54,2.86,2.86,0,0,1-1.13-3c.25-1.3.6-2.58,1-3.85.21-.75.4-1.51.61-2.31H442.7l1.06-3.46c.36-1.16.73-2.31,1.08-3.47s.73-2.25,1-3.46h-.66l-12.82-.07c-2.17,0-4.34-.07-6.5.13h-.31a1.94,1.94,0,0,1,.08-.21A14.62,14.62,0,0,0,426.76,54.16Z"/></svg>