<svg id="Layer_1" data-name="Layer 1" xmlns="http://www.w3.org/2000/svg" viewBox="0 0 600 160"><defs><style>.cls-1{fill:#ff4e00;}.cls-2{fill:#fff;}</style></defs><path class="cls-1" d="M121.55,135.46H33.81a11.56,11.56,0,0,1-4.5-.91,11.68,11.68,0,0,1-3.68-2.49,11.61,11.61,0,0,1-3.41-8.19V36.13a11.61,11.61,0,0,1,3.41-8.19,11.68,11.68,0,0,1,3.68-2.49,11.56,11.56,0,0,1,4.5-.91h87.74a11.52,11.52,0,0,1,4.5.91,11.68,11.68,0,0,1,6.18,6.18,11.56,11.56,0,0,1,.91,4.5v87.74a11.56,11.56,0,0,1-.91,4.5,11.68,11.68,0,0,1-6.18,6.18A11.52,11.52,0,0,1,121.55,135.46Z"/><path class="cls-2" d="M46.74,40.66H70.11a12.43,12.43,0,0,1,8,2.73,9.92,9.92,0,0,1,2.6,3,10.58,10.58,0,0,1,1,2.93,54.58,54.58,0,0,1,1.17,6.58L68.81,93.15l-6-28.5-.17,0C61.28,69.08,60,73.54,58.6,78s-2.7,8.93-4.06,13.4-2.7,8.89-4,13.33-2.7,8.93-4.05,13.42H23.31Q35,79.38,46.74,40.66Z"/><path class="cls-2" d="M108.61,118.14H85.23a12.44,12.44,0,0,1-8-2.73,10.2,10.2,0,0,1-2.6-3,10.58,10.58,0,0,1-1-2.93,55.09,55.09,0,0,1-1.16-6.58L86.54,65.65l6,28.5.16,0c1.39-4.45,2.71-8.91,4.07-13.36s2.7-8.93,4-13.4l4-13.33,4.06-13.42H132Q120.31,79.42,108.61,118.14Z"/><path d="M337.83,95.48h8.69l-8.77,29.06h-8.82Zm29.33,16.85,5.15-16.85h8.35L372,124.54H361.58l-4.09-20.2-6.09,20.2h-8.62l8.74-29.06h8.74a4.69,4.69,0,0,1,2.69.84,4.11,4.11,0,0,1,1,1,3.06,3.06,0,0,1,.57,1.24Zm41.85-10h-7.26L395,124.54h-8.81L393,102.35a36.36,36.36,0,0,0-4.93.13,12.29,12.29,0,0,0-3.08.69,5.83,5.83,0,0,0-1.9,1.13,14,14,0,0,0-1.32,1.44.44.44,0,0,1-.49.16c-.19-.06-.27-.17-.21-.35a50.48,50.48,0,0,1,2.53-4.37A13.09,13.09,0,0,1,386.52,98a11.4,11.4,0,0,1,3.94-2,20.07,20.07,0,0,1,5.67-.63v.08h15Zm41.4,13.92H445l-2.5,8.27h-8.42l8.77-29.06h14.71a11.65,11.65,0,0,1,3,.39,8.22,8.22,0,0,1,2.65,1.21,6.64,6.64,0,0,1,1.91,2.07,5.66,5.66,0,0,1,.74,2.92,16.15,16.15,0,0,1-.64,4.53,15.49,15.49,0,0,1-1.93,4.17,17.16,17.16,0,0,1-2.13,2.68,10.78,10.78,0,0,1-2.71,2l3,9.05h-8.19Zm.7-6a9.09,9.09,0,0,0,1.82-.16,4.38,4.38,0,0,0,1.21-.43,3.33,3.33,0,0,0,.82-.64l.68-.76a7,7,0,0,0,1.38-2.19,6.68,6.68,0,0,0,.49-2.57,3.16,3.16,0,0,0-.17-1,3.38,3.38,0,0,0-.49-.92,2.54,2.54,0,0,0-.76-.66,2,2,0,0,0-1-.25h-5.38l-2.89,9.56Zm37.65,2,5.15-16.85h8.35l-8.7,29.06H483.18l-4.09-20.2L473,124.54h-8.62l8.74-29.06h8.74a4.9,4.9,0,0,1,1.4.21,4.83,4.83,0,0,1,1.29.63,4.11,4.11,0,0,1,1,1,3.2,3.2,0,0,1,.57,1.24Zm68.78-10h-7.26l-6.71,22.19h-8.81l6.78-22.19a36.36,36.36,0,0,0-4.93.13,12.29,12.29,0,0,0-3.08.69,5.83,5.83,0,0,0-1.9,1.13,14,14,0,0,0-1.32,1.44.44.44,0,0,1-.49.16c-.19-.06-.27-.17-.21-.35a50.48,50.48,0,0,1,2.53-4.37A13.09,13.09,0,0,1,535.05,98,11.4,11.4,0,0,1,539,96a20.07,20.07,0,0,1,5.67-.63v.08h15Zm-119.73-7H420.43a15.34,15.34,0,0,0-3,.33c-2.93.61-6,7.92-6,8a49.69,49.69,0,0,0-3.17,9.88,17.18,17.18,0,0,0-.46,3.26,12.08,12.08,0,0,0,.33,3.17,7.29,7.29,0,0,0,1.67,3.18,5.16,5.16,0,0,0,3.31,1.62q1.57.17,3.15.27a47.8,47.8,0,0,0,5.08.11c1.26,0,2.52-.1,3.78-.19,1-.07,2-.19,3-.3.51-.06,1-.14,1.55-.22.69-2.39,1.37-4.78,2.06-7.17l-.09,0-.18,0a41.92,41.92,0,0,1-7.07.69,35.4,35.4,0,0,1-3.71-.15c-.77-.08-1.55-.19-2.32-.29a1.28,1.28,0,0,1-.65-.29,1.54,1.54,0,0,1-.61-1.61c.14-.7.33-1.39.52-2.08.11-.4.21-.81.32-1.24h11.06l.58-1.86c.19-.63.39-1.25.57-1.87s.4-1.22.56-1.86h-.35l-6.9,0a34.27,34.27,0,0,0-3.51.07h-.16a.55.55,0,0,1,0-.12,8,8,0,0,0,.59-1.26c.18-.45.39-.89.6-1.33a4.38,4.38,0,0,1,.88-1.18,1.77,1.77,0,0,1,1-.49,3.51,3.51,0,0,1,.56,0h12.32Zm92.57,0H513a15.26,15.26,0,0,0-3,.33c-2.94.61-6,7.92-6.05,8a51,51,0,0,0-3.17,9.88,17.17,17.17,0,0,0-.45,3.26,11.67,11.67,0,0,0,.33,3.17,7.18,7.18,0,0,0,1.67,3.18,5.13,5.13,0,0,0,3.3,1.62c1.05.11,2.11.2,3.16.27a47.67,47.67,0,0,0,5.07.11c1.27,0,2.53-.1,3.79-.19,1-.07,2-.19,3-.3.51-.06,1-.14,1.55-.22l2.07-7.17-.1,0-.17,0a42,42,0,0,1-7.07.69,35.29,35.29,0,0,1-3.71-.15c-.77-.08-1.55-.19-2.32-.29a1.28,1.28,0,0,1-.65-.29,1.53,1.53,0,0,1-.61-1.61c.13-.7.32-1.39.52-2.08.11-.4.21-.81.32-1.24h11.06c.19-.64.38-1.25.57-1.86s.39-1.25.58-1.87.4-1.22.56-1.86h-.35l-6.91,0a34.07,34.07,0,0,0-3.5.07h-.17a.48.48,0,0,1,.05-.12,8,8,0,0,0,.59-1.26c.18-.45.38-.89.6-1.33a4.56,4.56,0,0,1,.87-1.18,1.83,1.83,0,0,1,1-.49,3.44,3.44,0,0,1,.56,0h12.32Zm-245-59.62H265.3c-3.84,0-7.69,0-11.53,0a29.18,29.18,0,0,0-5.6.61c-5.46,1.13-11.18,14.7-11.23,14.81a94,94,0,0,0-5.89,18.36,31.7,31.7,0,0,0-.84,6.06,22,22,0,0,0,.61,5.88,13.37,13.37,0,0,0,3.11,5.9,9.41,9.41,0,0,0,6.13,3c1.95.21,3.9.37,5.86.51a89.76,89.76,0,0,0,9.42.2c2.34-.08,4.69-.18,7-.34,1.86-.13,3.72-.36,5.57-.57.95-.11,1.89-.26,2.88-.4,1.28-4.44,2.56-8.87,3.84-13.32l-.18,0a2,2,0,0,0-.34,0A76.93,76.93,0,0,1,261,77.73a63.21,63.21,0,0,1-6.88-.28c-1.44-.14-2.88-.35-4.32-.53a2.36,2.36,0,0,1-1.2-.55,2.86,2.86,0,0,1-1.14-3c.26-1.3.61-2.57,1-3.85.21-.75.39-1.5.6-2.3h20.53l1.07-3.47c.36-1.16.72-2.31,1.07-3.47s.74-2.25,1-3.45h-.65l-12.82-.07a64.29,64.29,0,0,0-6.51.12h-.31a.87.87,0,0,1,.09-.21,15.43,15.43,0,0,0,1.09-2.33c.34-.84.72-1.67,1.12-2.49a8,8,0,0,1,1.62-2.18,3.3,3.3,0,0,1,1.81-.91,7.31,7.31,0,0,1,1.05-.05h22.87c1.31-4.32,2.61-8.63,3.94-13Zm56,9a10.18,10.18,0,0,0-4.3-5.78,22.3,22.3,0,0,0-2.29-1.28,23.66,23.66,0,0,0-8.23-2c-1.71-.14-3.44-.17-5.16-.21a80.81,80.81,0,0,0-10.32.28,40.15,40.15,0,0,0-8.81,1.91,21.26,21.26,0,0,0-6,3.09,13,13,0,0,0-4.3,5.46c-1.42,3.43-2.74,6.9-3.91,10.43a98.43,98.43,0,0,0-4.69,19.24,17.6,17.6,0,0,0-.07,4.29,9.81,9.81,0,0,0,3.67,6.6,12.67,12.67,0,0,0,3.35,1.92,30.06,30.06,0,0,0,9.23,1.89c1.88.12,3.76.14,5,.18,3.08,0,5.49-.06,7.89-.29,2.06-.2,4.11-.48,6.17-.75a18.88,18.88,0,0,0,6.64-2.18,16.36,16.36,0,0,0,7.36-7.83,113,113,0,0,0,5.85-16.78,134.5,134.5,0,0,0,3.11-15.11A7,7,0,0,0,341.34,44.72Zm-16.79,6.05a110.74,110.74,0,0,1-3.4,12.93c-1.24,3.78-2.64,7.49-4.17,11.15a6.84,6.84,0,0,0-.25.72A4.44,4.44,0,0,1,315,78.05a9.4,9.4,0,0,1-3.62,1.44,28.59,28.59,0,0,1-5.14.41,12.2,12.2,0,0,1-2.34,0,6.65,6.65,0,0,1-1.95-.63,4.3,4.3,0,0,1-2.1-4.85,137.87,137.87,0,0,1,4.5-16.2c.9-2.62,1.88-5.22,2.81-7.83a5.22,5.22,0,0,1,2.22-2.72,10.45,10.45,0,0,1,4.31-1.48c1-.12,2-.16,2.82-.22a20.59,20.59,0,0,1,5.06.6,6.46,6.46,0,0,1,1.16.44A3.12,3.12,0,0,1,324.55,50.77ZM201.18,67a.6.6,0,0,1-.19-.33c-.61-3.14-1.21-6.28-1.82-9.43-1-5.08-2-10.17-2.94-15.26a6.72,6.72,0,0,0-2.53-4.14,8.72,8.72,0,0,0-5.55-1.91H171.87l-16.31,54h16.1q1.43-4.68,2.83-9.34l2.82-9.29c.94-3.11,1.87-6.23,2.82-9.33S182,55.72,183,52.62l.12,0q3.79,18.61,7.6,37.25h19.4L226.32,36h-15.6ZM396.8,42.66a12.91,12.91,0,0,0-6.58-5.38,20.71,20.71,0,0,0-7.63-1.35H355.3q-8.21,27-16.39,54h15.74l4.65-15.31h10.08q2.61,7.68,5.22,15.3h15.31c-1.85-5.61-3.68-11.18-5.52-16.75l.36-.22a20.28,20.28,0,0,0,4.72-3.63,31.72,31.72,0,0,0,5-6.68A28.48,28.48,0,0,0,398.17,47,9.27,9.27,0,0,0,396.8,42.66ZM379.14,59.75c-.33.35-.66.7-1,1.07a6.87,6.87,0,0,1-4,2.31,15.18,15.18,0,0,1-3.23.31c-2.61,0-5.23,0-7.84,0l-.46,0,5.39-17.72h.52c3.13,0,6.26,0,9.39,0a4.08,4.08,0,0,1,3.32,1.6,5.9,5.9,0,0,1,1.34,4A12.85,12.85,0,0,1,379.14,59.75Zm134-19.16a12.8,12.8,0,0,0-5.28-3.52,23.2,23.2,0,0,0-7.71-1.2h-29.4q-8,27.07-16,54.12c.24,0,.42,0,.59,0q8.83,0,17.66,0l19,0a11.74,11.74,0,0,0,3.07-.38,16.27,16.27,0,0,0,5.8-3A28.56,28.56,0,0,0,506,81.14a19.34,19.34,0,0,0,2.6-4.71,126.11,126.11,0,0,0,4.2-12.81,113,113,0,0,0,2.93-12.71,15.11,15.11,0,0,0,.16-4.14A11,11,0,0,0,513.13,40.59ZM500.65,52c-.42,2.18-1,4.3-1.68,6.42-1.51,5.08-3.18,10.09-5.15,15a14.51,14.51,0,0,1-1.58,2.93,5.26,5.26,0,0,1-3.64,2.24,21.59,21.59,0,0,1-3,.28c-3.65,0-7.3,0-11,0l-.39,0c3.21-11.11,6.4-22.15,9.61-33.23h.56c3.89,0,7.78,0,11.67,0a4,4,0,0,1,3.45,1.73A5.7,5.7,0,0,1,500.65,52Zm76.44-16.27H557c-3.84,0-7.68,0-11.53,0a29.36,29.36,0,0,0-5.6.61c-5.45,1.13-11.18,14.7-11.23,14.81a94,94,0,0,0-5.88,18.36,30.19,30.19,0,0,0-.84,6.06,21.58,21.58,0,0,0,.6,5.88,13.47,13.47,0,0,0,3.11,5.9,9.41,9.41,0,0,0,6.13,3c2,.21,3.91.37,5.86.51a89.76,89.76,0,0,0,9.42.2c2.35-.08,4.69-.18,7-.34,1.86-.13,3.71-.36,5.56-.57.55-.06,1.1-.14,1.65-.22l4.08-13.41a77.71,77.71,0,0,1-12.64,1.19,63.4,63.4,0,0,1-6.89-.28c-1.44-.14-2.87-.35-4.31-.53a2.36,2.36,0,0,1-1.21-.55,2.85,2.85,0,0,1-1.13-3c.25-1.3.6-2.57,1-3.85.21-.74.4-1.5.6-2.3h20.54c.36-1.19.71-2.33,1.06-3.47s.73-2.31,1.08-3.47.73-2.25,1-3.45h-.65L551,56.77a64.29,64.29,0,0,0-6.51.12h-.3a.93.93,0,0,1,.08-.21,15.43,15.43,0,0,0,1.09-2.33c.34-.84.72-1.67,1.12-2.49a8.2,8.2,0,0,1,1.62-2.18,3.3,3.3,0,0,1,1.81-.91,7.31,7.31,0,0,1,1.05-.05h22.87l3-10,.9-2.95ZM426.85,54.35c.34-.84.71-1.67,1.12-2.49a8,8,0,0,1,1.62-2.18,3.27,3.27,0,0,1,1.8-.91,7.38,7.38,0,0,1,1.05-.05h22.88l3.93-13H438.51c-3.84,0-7.69,0-11.53,0a29.37,29.37,0,0,0-5.61.61c-5.45,1.13-11.18,14.7-11.22,14.81a94.21,94.21,0,0,0-5.89,18.36,31.7,31.7,0,0,0-.84,6.06,22.39,22.39,0,0,0,.6,5.88,13.39,13.39,0,0,0,3.12,5.9,9.41,9.41,0,0,0,6.13,3c2,.21,3.9.37,5.86.51a89.7,89.7,0,0,0,9.42.2c2.34-.08,4.68-.18,7-.34,1.86-.13,3.72-.36,5.57-.57.95-.11,1.89-.26,2.88-.4l3.84-13.32a1.3,1.3,0,0,0-.19,0l-.33,0a76.93,76.93,0,0,1-13.12,1.27,63.21,63.21,0,0,1-6.88-.28c-1.44-.14-2.88-.35-4.32-.53a2.36,2.36,0,0,1-1.2-.55,2.85,2.85,0,0,1-1.14-3c.26-1.3.61-2.57,1-3.84.21-.75.39-1.51.6-2.31h20.53l1.07-3.47c.36-1.15.72-2.31,1.07-3.47s.73-2.25,1-3.45h-.65l-12.83-.07a64,64,0,0,0-6.5.12h-.31a1.94,1.94,0,0,1,.08-.21A14.57,14.57,0,0,0,426.85,54.35Z"/></svg>