<svg id="Camada_1" data-name="Camada 1" xmlns="http://www.w3.org/2000/svg" width="1000" height="141.09" viewBox="0 0 1000 141.09">
  <defs>
    <style>
      .cls-1 {
        fill: #212121;
      }

      .cls-2 {
        fill: #ff4e00;
      }
    </style>
  </defs>
  <g>
    <g>
      <path class="cls-1" d="M286.4,20.5V120.63H263.09L218.88,67.28v53.35H191.13V20.5h23.32l44.2,53.36V20.5Z"/>
      <path class="cls-1" d="M384,88.73H327.59c2.29,7.87,9,12.45,19,12.45,7.59,0,12.59-2.15,17.89-6.72l14.3,14.87c-7.44,8.3-18.31,12.59-33,12.59-27.61,0-45.49-17-45.49-40.2s18.16-39.91,42.62-39.91c22.89,0,41.49,14.59,41.49,40.2C384.38,84,384.09,86.59,384,88.73Zm-56.79-14.3h31.76c-1.43-8.16-7.44-13.31-15.88-13.31S328.73,66.27,327.16,74.43Z"/>
      <path class="cls-1" d="M392.09,81.72c0-23.31,18.46-39.91,43.78-39.91,25.6,0,43.77,16.6,43.77,39.91,0,23.47-18.17,40.2-43.77,40.2C410.55,121.92,392.09,105.19,392.09,81.72Zm60.09,0c0-11.73-7-18.31-16.31-18.31S419.56,70,419.56,81.72s7.15,18.6,16.31,18.6S452.18,93.6,452.18,81.72Z"/>
      <path class="cls-2" d="M487.35,81.72c0-23.31,18.46-39.91,44.49-39.91,17.6,0,31,7.87,36.34,21.32l-21,10.73c-3.72-7.3-9.16-10.45-15.45-10.45-9.44,0-16.88,6.58-16.88,18.31,0,12,7.44,18.6,16.88,18.6,6.29,0,11.73-3.15,15.45-10.44l21,10.73c-5.29,13.44-18.74,21.31-36.34,21.31C505.81,121.92,487.35,105.33,487.35,81.72Z"/>
      <path class="cls-2" d="M578.18,14.49h27.18V120.63H578.18Z"/>
      <path class="cls-2" d="M620,20.07c0-8.16,6.58-14.45,16.59-14.45s16.6,5.86,16.6,14c0,8.58-6.58,14.88-16.6,14.88S620,28.22,620,20.07Zm3,23h27.18v77.53H623Z"/>
      <path class="cls-2" d="M746.54,88.73H690.18c2.29,7.87,9,12.45,19,12.45,7.59,0,12.59-2.15,17.89-6.72l14.3,14.87c-7.44,8.3-18.31,12.59-33,12.59-27.61,0-45.49-17-45.49-40.2S681,41.81,705.49,41.81C728.37,41.81,747,56.4,747,82,747,84,746.68,86.59,746.54,88.73Zm-56.79-14.3h31.76c-1.43-8.16-7.44-13.31-15.88-13.31S691.32,66.27,689.75,74.43Z"/>
      <path class="cls-2" d="M842.09,76.29v44.34H814.91V80.72c0-11.15-4.87-15.88-12.73-15.88-8.73,0-15.45,5.44-15.45,18.32v37.47H759.55V43.1h25.89v8.44c6.15-6.44,14.88-9.73,24.6-9.73C828.21,41.81,842.09,52.25,842.09,76.29Z"/>
      <path class="cls-2" d="M912.6,117.49c-4.72,3-11.73,4.43-18.88,4.43-19.89,0-31.47-9.72-31.47-29.61v-26H850.94V46h11.31V25.79h27.18V46h17.74V66.27H889.43V92c0,5.72,3.29,8.87,8.15,8.87a14.93,14.93,0,0,0,8.3-2.43Z"/>
      <path class="cls-2" d="M999.57,88.73H943.21c2.29,7.87,9,12.45,19,12.45,7.59,0,12.59-2.15,17.89-6.72l14.3,14.87c-7.44,8.3-18.31,12.59-33,12.59-27.61,0-45.49-17-45.49-40.2s18.16-39.91,42.63-39.91C981.4,41.81,1000,56.4,1000,82,1000,84,999.71,86.59,999.57,88.73Zm-56.79-14.3h31.76c-1.43-8.16-7.44-13.31-15.88-13.31S944.35,66.27,942.78,74.43Z"/>
    </g>
    <path class="cls-2" d="M126.35,141.09H14.74A14.56,14.56,0,0,1,9,139.92a14.84,14.84,0,0,1-7.86-7.85A14.59,14.59,0,0,1,0,126.35V14.74A14.55,14.55,0,0,1,1.16,9,14.91,14.91,0,0,1,9,1.16,14.55,14.55,0,0,1,14.74,0H126.35a14.59,14.59,0,0,1,5.72,1.16A14.84,14.84,0,0,1,139.92,9a14.56,14.56,0,0,1,1.17,5.72V126.35a14.6,14.6,0,0,1-1.17,5.72,14.78,14.78,0,0,1-7.85,7.85A14.6,14.6,0,0,1,126.35,141.09Zm-125-22H30.8Q33.38,110.5,36,102t5.15-17c1.72-5.68,3.42-11.37,5.16-17s3.4-11.33,5.16-17h.22l7.6,36.26,17.9-47.34a66.12,66.12,0,0,0-1.49-8.37,13.17,13.17,0,0,0-1.31-3.73A13,13,0,0,0,71,24a15.91,15.91,0,0,0-10.13-3.48q-14.41,0-28.84,0h-.89Q16.27,69.83,1.38,119.05Zm138.3-98.54H110.26q-2.6,8.55-5.16,17.06t-5.15,17c-1.72,5.68-3.42,11.37-5.16,17s-3.41,11.33-5.16,17l-.22,0-7.6-36.26L63.91,99.63A68.89,68.89,0,0,0,65.39,108a13.63,13.63,0,0,0,1.32,3.73A13,13,0,0,0,70,115.57a15.9,15.9,0,0,0,10.12,3.48q14.43,0,28.85,0h.89Q124.79,69.73,139.68,20.51Z"/>
  </g>
</svg>
