<?xml version="1.0" encoding="utf-8"?>
<!-- Generator: Adobe Illustrator 25.0.1, SVG Export Plug-In . SVG Version: 6.00 Build 0)  -->
<svg version="1.1" id="Camada_2_1_" xmlns="http://www.w3.org/2000/svg" xmlns:xlink="http://www.w3.org/1999/xlink" x="0px"
	 y="0px" viewBox="0 0 621 206" style="enable-background:new 0 0 621 206;" xml:space="preserve">
<style type="text/css">
	.st0{fill:#FF4E00;}
	.st1{fill:#FFFFFF;}
</style>
<g>
	<path class="st0" d="M173.8,174.5H60.7c-2,0-4-0.4-5.8-1.2c-1.8-0.8-3.4-1.8-4.8-3.2s-2.5-3-3.2-4.8c-0.8-1.8-1.2-3.8-1.2-5.8V46.4
		c0-2,0.4-4,1.2-5.8c0.8-1.8,1.8-3.4,3.2-4.8c1.4-1.4,3-2.5,4.8-3.2c1.8-0.8,3.8-1.2,5.8-1.2h113.2c2,0,4,0.4,5.8,1.2
		c1.8,0.8,3.4,1.8,4.8,3.2c1.4,1.4,2.5,3,3.2,4.8c0.8,1.8,1.2,3.8,1.2,5.8v113.2c0,2-0.4,4-1.2,5.8c-0.8,1.8-1.8,3.4-3.2,4.8
		c-1.4,1.4-3,2.5-4.8,3.2C177.8,174.1,175.9,174.5,173.8,174.5z"/>
	<g>
		<path d="M217.4,63c0.2,0,0.3,0,0.4,0c4.6,0,9.3,0,13.9,0c1.8,0,3.5,0.5,4.9,1.7c1.2,0.9,2,2.1,2.2,3.6c0.8,4.5,1.7,9,2.6,13.5
			c0.5,2.8,1.1,5.5,1.6,8.3c0,0.1,0.1,0.2,0.2,0.3c2.8-9.1,5.6-18.2,8.4-27.4c4.6,0,9.1,0,13.8,0c-4.8,15.9-9.5,31.7-14.3,47.6
			c-5.7,0-11.4,0-17.1,0c-2.2-11-4.5-21.9-6.7-32.9c0,0-0.1,0-0.1,0c-0.9,2.7-1.7,5.5-2.5,8.2c-0.8,2.7-1.7,5.5-2.5,8.2
			c-0.8,2.7-1.7,5.5-2.5,8.2c-0.8,2.7-1.7,5.5-2.5,8.2c-4.7,0-9.4,0-14.2,0C207.8,94.7,212.6,78.9,217.4,63z"/>
		<path d="M334.3,111.3c-1.1,0-2.7,0-4.4-0.2c-2.8-0.2-5.5-0.6-8.1-1.7c-1.1-0.4-2.1-1-3-1.7c-1.9-1.5-2.9-3.5-3.2-5.8
			c-0.2-1.3-0.1-2.5,0.1-3.8c0.7-5.8,2.3-11.4,4.1-17c1-3.1,2.2-6.2,3.4-9.2c0.8-2,2.1-3.5,3.8-4.8c1.6-1.2,3.4-2.1,5.2-2.7
			c2.5-0.9,5.1-1.4,7.8-1.7c3-0.3,6.1-0.3,9.1-0.2c1.5,0,3,0.1,4.5,0.2c2.5,0.2,5,0.7,7.2,1.8c0.7,0.3,1.4,0.7,2,1.1
			c1.9,1.2,3.1,3,3.8,5.1c0.3,0.9,0.3,1.8,0.2,2.7c-0.6,4.5-1.6,8.9-2.7,13.3c-1.3,5.1-3,10-5.2,14.8c-1.4,3.1-3.6,5.3-6.5,6.9
			c-1.8,1-3.8,1.6-5.9,1.9c-1.8,0.2-3.6,0.5-5.4,0.7C339.2,111.3,337.1,111.3,334.3,111.3z M344.9,71.8c-0.7,0-1.6,0.1-2.5,0.2
			c-1.4,0.2-2.6,0.6-3.8,1.3c-0.9,0.6-1.6,1.4-2,2.4c-0.8,2.3-1.7,4.6-2.5,6.9c-1.6,4.7-2.9,9.4-4,14.3c-0.4,1.9,0.5,3.5,1.9,4.3
			c0.5,0.3,1.1,0.5,1.7,0.6c0.7,0.1,1.4,0,2.1,0c1.5,0,3-0.1,4.5-0.4c1.1-0.2,2.2-0.6,3.2-1.3c0.8-0.5,1.3-1.3,1.5-2.2
			c0.1-0.2,0.1-0.4,0.2-0.6c1.4-3.2,2.6-6.5,3.7-9.8c1.2-3.7,2.2-7.5,3-11.4c0.3-1.5-0.1-2.5-1.6-3.3c-0.3-0.2-0.7-0.3-1-0.4
			C348,71.9,346.5,71.9,344.9,71.8z"/>
		<path d="M466.8,110.7c4.7-15.9,9.4-31.8,14.1-47.7c0.2,0,0.3,0,0.5,0c8.5,0,17,0,25.4,0c2.3,0,4.6,0.3,6.8,1.1
			c1.8,0.6,3.4,1.7,4.7,3.1c1.4,1.5,2.2,3.4,2.5,5.5c0.2,1.2,0,2.4-0.1,3.6C520,80,519,83.7,518,87.4c-1,3.8-2.3,7.6-3.7,11.3
			c-0.6,1.5-1.3,2.9-2.3,4.2c-1.3,1.8-2.8,3.5-4.5,4.8c-1.5,1.2-3.2,2.1-5.1,2.6c-0.9,0.2-1.8,0.3-2.7,0.3c-5.6,0-11.2,0-16.8,0
			c-5.2,0-10.4,0-15.6,0C467.2,110.7,467.1,110.7,466.8,110.7z M484,100.9c0.2,0,0.2,0,0.3,0c3.2,0,6.4,0,9.7,0
			c0.9,0,1.8-0.1,2.6-0.2c1.3-0.2,2.4-0.9,3.2-2c0.6-0.8,1-1.7,1.4-2.6c1.7-4.3,3.2-8.8,4.5-13.2c0.6-1.9,1.1-3.7,1.5-5.7
			c0.3-1.5-0.1-2.9-1-4.1c-0.8-1-1.7-1.5-3-1.5c-3.4,0-6.9,0-10.3,0c-0.2,0-0.3,0-0.5,0C489.6,81.3,486.8,91.1,484,100.9z"/>
		<path d="M379.1,63c0.2,0,0.3,0,0.5,0c7.9,0,15.7,0,23.6,0c2.3,0,4.6,0.4,6.7,1.2c2.4,1,4.4,2.5,5.8,4.8c0.7,1.2,1.1,2.5,1.2,3.8
			c0.2,4.9-0.9,9.5-3.2,13.8c-1.2,2.2-2.7,4.1-4.4,5.9c-1.2,1.3-2.6,2.4-4.2,3.2c-0.1,0-0.2,0.1-0.3,0.2c1.6,4.9,3.2,9.8,4.9,14.8
			c-4.5,0-9,0-13.5,0c-1.5-4.5-3.1-9-4.6-13.5c-3,0-5.9,0-8.9,0c-1.4,4.5-2.7,9-4.1,13.5c-4.6,0-9.2,0-13.9,0
			C369.5,94.7,374.3,78.9,379.1,63z M385.6,87.2c0.2,0,0.3,0,0.4,0c2.3,0,4.6,0,6.9,0c1,0,1.9-0.1,2.9-0.3c1.4-0.3,2.6-0.9,3.5-2
			c0.3-0.3,0.6-0.6,0.9-0.9c1.9-2.1,3-4.6,3.1-7.4c0-1.3-0.3-2.5-1.2-3.6c-0.8-0.9-1.7-1.4-2.9-1.4c-2.8,0-5.5,0-8.3,0
			c-0.1,0-0.3,0-0.5,0C388.8,76.8,387.2,82,385.6,87.2z"/>
		<path d="M467.3,74.3c-0.3,0-0.5,0-0.6,0c-6.5,0-13,0-19.5,0c-0.3,0-0.6,0-0.9,0c-0.6,0.1-1.2,0.4-1.6,0.8
			c-0.6,0.6-1.1,1.2-1.4,1.9s-0.7,1.5-1,2.2c-0.3,0.7-0.6,1.4-1,2.1c0,0,0,0.1-0.1,0.2c0.1,0,0.2,0,0.3,0c1.9-0.2,3.8-0.1,5.7-0.1
			c3.8,0,7.5,0,11.3,0.1c0.2,0,0.3,0,0.6,0c-0.3,1.1-0.6,2-0.9,3c-0.3,1-0.6,2-1,3.1c-0.3,1-0.6,2-0.9,3c-6,0-12.1,0-18.1,0
			c-0.2,0.7-0.3,1.4-0.5,2c-0.3,1.1-0.6,2.2-0.8,3.4c-0.2,1.1,0.2,2,1,2.6c0.3,0.2,0.7,0.4,1.1,0.5c1.3,0.2,2.5,0.4,3.8,0.5
			c2,0.2,4,0.3,6.1,0.2c3.9-0.1,7.8-0.4,11.6-1.1c0.1,0,0.2,0,0.3,0c0,0,0.1,0,0.2,0c-1.1,3.9-2.3,7.8-3.4,11.7
			c-0.9,0.1-1.7,0.3-2.5,0.4c-1.6,0.2-3.3,0.4-4.9,0.5c-2.1,0.1-4.1,0.2-6.2,0.3c-2.8,0.1-5.5,0-8.3-0.2c-1.7-0.1-3.5-0.3-5.2-0.4
			c-2.1-0.2-3.9-1.1-5.4-2.6c-1.4-1.5-2.2-3.2-2.7-5.2c-0.5-1.7-0.5-3.4-0.5-5.2c0-1.8,0.4-3.6,0.7-5.3c1.2-5.6,2.9-11,5.2-16.2
			c0-0.1,5.1-12.1,9.9-13.1c1.6-0.3,3.3-0.5,4.9-0.5c3.4,0,6.8,0,10.2,0c5.9,0,11.8,0,17.7,0c0.2,0,0.4,0,0.6,0
			C469.6,66.7,468.5,70.5,467.3,74.3z"/>
		<path d="M537.7,137c-0.8-4.1-1.6-8.2-2.4-12.3c-0.3,0.1-0.2,0.4-0.3,0.6c-1.2,3.9-2.3,7.7-3.5,11.6c-0.5,1.8-1.1,3.5-1.6,5.2
			c0,0.2-0.1,0.4-0.2,0.5c-2.6,0-5.1,0-7.8,0c2.6-8.7,5.3-17.4,7.9-26.1c0.2,0,0.3,0,0.4,0c2.5,0,5.1,0,7.6,0c0.7,0,1.4,0.2,2,0.5
			c1,0.6,1.6,1.4,1.8,2.5c0.3,1.7,0.7,3.5,1,5.2c0,0.1,0.1,0.2,0.1,0.4c0.2-0.2,0.3-0.4,0.4-0.5c1.5-1.9,3-3.8,4.5-5.6
			c1.1-1.4,2.5-2.2,4.3-2.5c0.2,0,0.4,0,0.6,0c2.3,0,4.6,0,6.9,0c0.1,0,0.2,0,0.2,0c0,0.4-7.3,25-7.8,26.1c-2.6,0-5.2,0-7.9,0
			c1.8-5.9,3.6-11.7,5.3-17.6c0,0-0.1,0-0.1-0.1c-0.1,0.1-0.3,0.3-0.4,0.5c-3.1,3.7-6.1,7.4-9.2,11.1c-0.2,0.3-0.5,0.5-0.9,0.4
			C538.6,137,538.2,137,537.7,137z"/>
		<path d="M505.6,143.1c-1.7,0-3.4,0-5.1-0.4c-0.8-0.2-1.6-0.4-2.3-0.7c-2.3-1-3.5-3-3.2-5.5c0.3-3.2,1.1-6.2,2.1-9.2
			c0.6-1.9,1.3-3.7,2-5.6c0.5-1.2,1.3-2.2,2.4-3c1.3-1,2.9-1.5,4.5-1.9c1.6-0.4,3.2-0.5,4.9-0.5c1.7,0,3.4,0,5,0.1
			c1.6,0.1,3.1,0.4,4.6,1.2c1.2,0.7,2.1,1.6,2.6,2.9c0.2,0.7,0.2,1.4,0.1,2c-0.8,5.1-2.1,10.1-4.2,14.8c-1.2,2.8-3.4,4.4-6.3,5
			C510.4,143,508,143.1,505.6,143.1z M506.1,138C506.1,138,506.1,137.9,506.1,138c0.3-0.1,0.6-0.1,0.9-0.1c0.9-0.1,1.8-0.1,2.7-0.5
			c0.8-0.3,1.3-0.8,1.5-1.7c0-0.2,0.1-0.3,0.2-0.5c0.6-1.7,1.3-3.4,1.9-5.1c0.7-2.1,1.3-4.2,1.7-6.4c0.2-0.9-0.1-1.5-0.9-1.8
			c-0.2-0.1-0.5-0.2-0.8-0.3c-1.1-0.2-2.2-0.3-3.3-0.2c-0.8,0.1-1.6,0.3-2.3,0.7c-0.5,0.3-0.9,0.7-1.1,1.3
			c-1.5,3.8-2.7,7.7-3.6,11.7c-0.3,1.3,0.3,2.3,1.6,2.6C505.1,138,505.6,137.9,506.1,138z"/>
		<path d="M497.2,116.5c-0.6,2.1-1.3,4.1-1.9,6.2c-0.2,0-0.5,0-0.7,0c-3.5,0-7.1,0-10.6,0c-1.1,0-1.8,0.4-2.2,1.3
			c-1.8,3.3-3,6.9-3.5,10.7c-0.1,0.9,0.3,1.5,1.3,1.6c0.7,0.1,1.4,0.2,2.2,0.2c1.4,0.1,2.7,0.1,4.1,0.1c1.7,0,3.4-0.2,5.1-0.5
			c0.1,0,0.1,0,0.3,0c-0.6,2.2-1.2,4.3-1.8,6.5c-0.8,0.1-1.5,0.2-2.3,0.3c-2.5,0.3-5,0.4-7.5,0.3c-1.7-0.1-3.3-0.2-5-0.3
			c-1.8-0.2-3.1-1.1-3.9-2.7c-0.6-1.1-0.8-2.2-0.9-3.4c-0.1-1.5,0.2-2.9,0.4-4.3c0.6-2.9,1.4-5.8,2.6-8.5c0.7-1.5,1.4-3,2.5-4.2
			c0.7-0.9,1.6-1.6,2.5-2.2c1.1-0.7,2.3-1,3.6-1c5.1,0,10.3,0,15.4,0C496.9,116.4,497,116.5,497.2,116.5z"/>
		<path d="M377.3,142.7c-2.7,0-5.3,0-8,0c2-6.6,4.1-13.2,6.1-19.9c-0.1,0-0.2-0.1-0.2-0.1c-2-0.1-4,0-6,0.4c-1.4,0.3-2.6,1-3.5,2.1
			c-0.2,0.2-0.3,0.4-0.5,0.6c-0.1,0.1-0.3,0.1-0.5,0c-0.2-0.1-0.1-0.3,0-0.4c0.9-1.7,1.8-3.4,3-4.9c1.9-2.4,4.4-3.6,7.4-4
			c0.7-0.1,1.5-0.1,2.2-0.2c0.6,0,1.1,0.1,1.7,0.1c4,0,8.1,0,12.1,0c0.2,0,0.4,0,0.7,0c-0.6,2.1-1.3,4.1-1.9,6.2c-0.2,0-0.4,0-0.6,0
			c-1.8,0-3.5,0-5.3,0c-0.6,0-0.6,0-0.8,0.6c-1.9,6.3-3.8,12.5-5.7,18.8C377.4,142.3,377.4,142.5,377.3,142.7z"/>
		<path d="M423.9,116.6c2.6,0,5.2,0,7.8,0c-0.1,0.2-0.1,0.4-0.2,0.6c-1.4,4.5-2.7,8.9-4.1,13.4c-0.4,1.3-0.7,2.6-0.9,4
			c-0.1,0.8,0.8,1.8,1.5,1.9c2.2,0.3,4.3,0.4,6.5,0.2c1.7-0.2,3.3-0.5,5-0.7c0,0,0.1,0,0.2,0c-0.6,2.1-1.2,4.3-1.8,6.4
			c-0.7,0.1-1.4,0.2-2.1,0.3c-2.4,0.3-4.8,0.5-7.2,0.5c-2,0-4-0.2-6-0.5c-2.6-0.5-4.1-2.2-4.2-4.9c0-1.1,0-2.1,0.3-3.2
			c0.7-2.8,1.5-5.5,2.3-8.2c0.9-3.1,1.9-6.2,2.9-9.4C423.8,116.9,423.8,116.7,423.9,116.6z"/>
		<path d="M571.8,74.3c-0.3,0-0.5,0-0.6,0c-6.5,0-13,0-19.5,0c-0.3,0-0.6,0-0.9,0c-0.6,0.1-1.2,0.4-1.6,0.8
			c-0.6,0.6-1.1,1.2-1.4,1.9s-0.7,1.5-1,2.2c-0.3,0.7-0.6,1.4-1,2.1c0,0,0,0.1-0.1,0.2c0.1,0,0.2,0,0.3,0c1.9-0.2,3.8-0.1,5.7-0.1
			c3.8,0,7.5,0,11.3,0.1c0.2,0,0.3,0,0.6,0c-0.3,1.1-0.6,2-0.9,3c-0.3,1-0.6,2-1,3.1c-0.3,1-0.6,2-0.9,3c-6,0-12.1,0-18.1,0
			c-0.2,0.7-0.3,1.4-0.5,2c-0.3,1.1-0.6,2.2-0.8,3.4c-0.2,1.1,0.2,2,1,2.6c0.3,0.2,0.7,0.4,1.1,0.5c1.3,0.2,2.5,0.4,3.8,0.5
			c2,0.2,4,0.3,6.1,0.2c3.9-0.1,7.8-0.4,11.6-1.1c0.1,0,0.2,0,0.3,0c0,0,0.1,0,0.2,0c-1.1,3.9-2.3,7.8-3.4,11.7
			c-0.9,0.1-1.7,0.3-2.5,0.4c-1.6,0.2-3.3,0.4-4.9,0.5c-2.1,0.1-4.1,0.2-6.2,0.3c-2.8,0.1-5.5,0-8.3-0.2c-1.7-0.1-3.5-0.3-5.2-0.4
			c-2.1-0.2-3.9-1.1-5.4-2.6c-1.4-1.5-2.2-3.2-2.7-5.2c-0.5-1.7-0.5-3.4-0.5-5.2c0-1.8,0.4-3.6,0.7-5.3c1.2-5.6,2.9-11,5.2-16.2
			c0-0.1,5.1-12.1,9.9-13.1c1.6-0.3,3.3-0.5,4.9-0.5c3.4,0,6.8,0,10.2,0c5.9,0,11.8,0,17.7,0c0.2,0,0.4,0,0.6,0
			C574.1,66.7,573,70.5,571.8,74.3z"/>
		<path d="M314.6,74.3c-0.3,0-0.5,0-0.6,0c-6.5,0-13,0-19.5,0c-0.3,0-0.6,0-0.9,0c-0.6,0.1-1.1,0.4-1.6,0.8
			c-0.6,0.6-1.1,1.2-1.4,1.9s-0.7,1.5-1,2.2c-0.3,0.7-0.6,1.4-1,2.1c0,0,0,0.1-0.1,0.2c0.1,0,0.2,0,0.3,0c1.9-0.2,3.8-0.1,5.7-0.1
			c3.8,0,7.5,0,11.3,0.1c0.2,0,0.3,0,0.6,0c-0.3,1.1-0.6,2-0.9,3c-0.3,1-0.6,2-1,3.1c-0.3,1-0.6,2-0.9,3c-6,0-12.1,0-18.1,0
			c-0.2,0.7-0.4,1.4-0.5,2c-0.3,1.1-0.6,2.2-0.9,3.4c-0.2,1.1,0.2,2,1,2.6c0.3,0.2,0.7,0.4,1.1,0.5c1.3,0.2,2.5,0.4,3.8,0.5
			c2,0.2,4,0.3,6.1,0.2c3.9-0.1,7.8-0.4,11.6-1.1c0.1,0,0.2,0,0.3,0c0,0,0.1,0,0.2,0c-1.1,3.9-2.3,7.8-3.4,11.7
			c-0.9,0.1-1.7,0.3-2.5,0.4c-1.6,0.2-3.3,0.4-4.9,0.5c-2.1,0.1-4.1,0.2-6.2,0.3c-2.8,0.1-5.5,0-8.3-0.2c-1.7-0.1-3.5-0.3-5.2-0.4
			c-2.1-0.2-3.9-1.1-5.4-2.6c-1.4-1.5-2.2-3.2-2.7-5.2c-0.5-1.7-0.5-3.4-0.5-5.2c0-1.8,0.4-3.6,0.7-5.3c1.2-5.6,2.9-11,5.2-16.2
			c0-0.1,5.1-12.1,9.9-13.1c1.6-0.3,3.3-0.5,4.9-0.5c3.4,0,6.8,0,10.2,0c5.9,0,11.8,0,17.7,0c0.2,0,0.4,0,0.6,0
			C316.9,66.7,315.7,70.5,314.6,74.3z"/>
		<path d="M469,122.8c-0.2,0-0.2,0-0.3,0c-3.6,0-7.2,0-10.8,0c-0.2,0-0.3,0-0.5,0c-0.3,0-0.6,0.2-0.9,0.4c-0.3,0.3-0.6,0.7-0.8,1.1
			c-0.2,0.4-0.4,0.8-0.5,1.2c-0.2,0.4-0.3,0.8-0.5,1.1c0,0,0,0,0,0.1c0.1,0,0.1,0,0.2,0c1.1-0.1,2.1-0.1,3.2-0.1c2.1,0,4.2,0,6.3,0
			c0.1,0,0.2,0,0.3,0c-0.2,0.6-0.3,1.1-0.5,1.7c-0.2,0.6-0.3,1.1-0.5,1.7c-0.2,0.6-0.3,1.1-0.5,1.7c-3.3,0-6.7,0-10,0
			c-0.1,0.4-0.2,0.8-0.3,1.1c-0.2,0.6-0.3,1.2-0.5,1.9c-0.1,0.6,0.1,1.1,0.5,1.5c0.2,0.1,0.4,0.2,0.6,0.3c0.7,0.1,1.4,0.2,2.1,0.3
			c1.1,0.1,2.2,0.1,3.4,0.1c2.2,0,4.3-0.2,6.4-0.6c0,0,0.1,0,0.2,0c0,0,0,0,0.1,0c-0.6,2.2-1.2,4.3-1.9,6.5
			c-0.5,0.1-0.9,0.1-1.4,0.2c-0.9,0.1-1.8,0.2-2.7,0.3c-1.1,0.1-2.3,0.1-3.4,0.2c-1.5,0-3.1,0-4.6-0.1c-1-0.1-1.9-0.1-2.9-0.2
			c-1.2-0.1-2.2-0.6-3-1.5c-0.8-0.8-1.2-1.8-1.5-2.9c-0.2-0.9-0.3-1.9-0.3-2.9c0-1,0.2-2,0.4-3c0.7-3.1,1.6-6.1,2.9-9
			c0,0,2.8-6.7,5.5-7.2c0.9-0.2,1.8-0.3,2.7-0.3c1.9,0,3.8,0,5.6,0c3.3,0,6.5,0,9.8,0c0.1,0,0.2,0,0.3,0
			C470.3,118.6,469.7,120.7,469,122.8z"/>
		<path d="M417.8,122.8c-0.2,0-0.2,0-0.3,0c-3.6,0-7.2,0-10.8,0c-0.2,0-0.3,0-0.5,0c-0.3,0-0.6,0.2-0.9,0.4
			c-0.3,0.3-0.6,0.7-0.8,1.1c-0.2,0.4-0.4,0.8-0.5,1.2c-0.2,0.4-0.3,0.8-0.5,1.1c0,0,0,0,0,0.1c0.1,0,0.1,0,0.2,0
			c1.1-0.1,2.1-0.1,3.2-0.1c2.1,0,4.2,0,6.3,0c0.1,0,0.2,0,0.3,0c-0.2,0.6-0.3,1.1-0.5,1.7c-0.2,0.6-0.3,1.1-0.5,1.7
			c-0.2,0.6-0.3,1.1-0.5,1.7c-3.3,0-6.7,0-10,0c-0.1,0.4-0.2,0.8-0.3,1.1c-0.2,0.6-0.4,1.2-0.5,1.9c-0.1,0.6,0.1,1.1,0.5,1.5
			c0.2,0.1,0.4,0.2,0.6,0.3c0.7,0.1,1.4,0.2,2.1,0.3c1.1,0.1,2.2,0.1,3.4,0.1c2.2,0,4.3-0.2,6.4-0.6c0,0,0.1,0,0.2,0c0,0,0,0,0.1,0
			c-0.6,2.2-1.2,4.3-1.9,6.5c-0.5,0.1-0.9,0.1-1.4,0.2c-0.9,0.1-1.8,0.2-2.7,0.3c-1.1,0.1-2.3,0.1-3.4,0.2c-1.5,0-3.1,0-4.6-0.1
			c-1-0.1-1.9-0.1-2.9-0.2c-1.2-0.1-2.2-0.6-3-1.5c-0.8-0.8-1.2-1.8-1.5-2.9c-0.2-0.9-0.3-1.9-0.3-2.9c0-1,0.2-2,0.4-3
			c0.6-3.1,1.6-6.1,2.9-9c0,0,2.8-6.7,5.5-7.2c0.9-0.2,1.8-0.3,2.7-0.3c1.9,0,3.8,0,5.6,0c3.3,0,6.5,0,9.8,0c0.1,0,0.2,0,0.3,0
			C419,118.6,418.4,120.7,417.8,122.8z"/>
	</g>
	<g>
		<g>
			<path class="st1" d="M47.1,152.2c10,0,19.9,0,29.8,0c1.8-5.8,3.5-11.5,5.2-17.3c1.7-5.7,3.5-11.5,5.2-17.2
				c1.8-5.8,3.5-11.5,5.2-17.3c1.8-5.7,3.5-11.5,5.2-17.2c0.1,0,0.1,0,0.2,0c2.6,12.3,5.1,24.5,7.7,36.8c6.1-16,12.1-32,18.1-48
				c-0.2-2.9-1.4-7.9-1.5-8.5c-0.3-1.4-0.6-2.5-1.3-3.8c-0.8-1.5-1.9-2.8-3.4-3.9c-3-2.4-6.4-3.5-10.3-3.5c-9.8,0-19.5,0-29.2,0
				c-0.3,0-0.5,0-0.9,0C67.3,85.6,57.2,118.9,47.1,152.2z"/>
		</g>
		<g>
			<path class="st1" d="M187.4,52.2c-10,0-19.9,0-29.8,0c-1.8,5.8-3.5,11.5-5.2,17.3c-1.7,5.7-3.5,11.5-5.2,17.2
				c-1.8,5.8-3.5,11.5-5.2,17.3c-1.8,5.7-3.5,11.5-5.2,17.2c-0.1,0-0.1,0-0.2,0c-2.6-12.3-5.1-24.5-7.7-36.8c-6,16-12.1,32-18.1,48
				c0.2,2.9,1.4,7.9,1.5,8.5c0.3,1.4,0.6,2.5,1.3,3.8c0.8,1.5,1.9,2.8,3.4,3.9c3,2.4,6.4,3.5,10.3,3.5c9.8,0,19.5,0,29.3,0
				c0.3,0,0.5,0,0.9,0C167.2,118.8,177.3,85.6,187.4,52.2z"/>
		</g>
	</g>
</g>
</svg>
