<?xml version="1.0" encoding="utf-8"?>
<!-- Generator: Adobe Illustrator 25.0.0, SVG Export Plug-In . SVG Version: 6.00 Build 0)  -->
<svg version="1.1" id="Camada_2" xmlns="http://www.w3.org/2000/svg" xmlns:xlink="http://www.w3.org/1999/xlink" x="0px" y="0px"
	 viewBox="0 0 620.99 206.47" style="enable-background:new 0 0 620.99 206.47;" xml:space="preserve">
<style type="text/css">
	.st0{fill:#FF4E00;}
	.st1{fill:#FFFFFF;}
</style>
<path class="st0" d="M173.45,174.78H60.26c-2.01,0-3.96-0.4-5.8-1.18c-1.78-0.76-3.38-1.84-4.75-3.21
	c-1.38-1.38-2.46-2.97-3.21-4.75c-0.78-1.84-1.18-3.79-1.18-5.8V46.64c0-2.01,0.4-3.96,1.18-5.8c0.76-1.78,1.84-3.38,3.21-4.75
	c1.38-1.38,2.97-2.46,4.75-3.21c1.84-0.78,3.79-1.18,5.8-1.18h113.19c2.01,0,3.96,0.4,5.8,1.18c1.78,0.76,3.38,1.84,4.75,3.21
	c1.38,1.38,2.46,2.97,3.21,4.75c0.78,1.84,1.18,3.79,1.18,5.8v113.19c0,2.01-0.4,3.96-1.18,5.8c-0.76,1.78-1.84,3.38-3.21,4.75
	c-1.38,1.38-2.97,2.46-4.75,3.21C177.41,174.38,175.45,174.78,173.45,174.78z"/>
<g>
	<path class="st1" d="M216.98,63.23c0.18,0,0.3,0,0.43,0c4.64,0,9.28,0,13.92,0c1.82,0,3.46,0.54,4.89,1.68
		c1.19,0.94,1.95,2.13,2.23,3.65c0.84,4.49,1.72,8.97,2.59,13.45c0.54,2.77,1.07,5.55,1.61,8.32c0.02,0.09,0.06,0.18,0.16,0.28
		c2.8-9.12,5.61-18.24,8.41-27.37c4.59,0,9.14,0,13.75,0c-4.78,15.87-9.55,31.71-14.32,47.56c-5.71,0-11.39,0-17.11,0
		c-2.23-10.96-4.47-21.9-6.7-32.85c-0.03,0-0.07-0.01-0.1-0.01c-0.85,2.73-1.66,5.47-2.49,8.2c-0.84,2.74-1.66,5.49-2.49,8.23
		c-0.83,2.73-1.66,5.46-2.49,8.19c-0.83,2.74-1.66,5.48-2.49,8.24c-4.73,0-9.44,0-14.2,0C207.39,94.94,212.18,79.11,216.98,63.23z"
		/>
	<path class="st1" d="M333.95,111.56c-1.07-0.04-2.73-0.05-4.39-0.16c-2.79-0.17-5.53-0.64-8.14-1.67
		c-1.07-0.42-2.06-0.97-2.95-1.69c-1.86-1.5-2.93-3.45-3.23-5.82c-0.16-1.26-0.09-2.53,0.06-3.79c0.69-5.82,2.3-11.42,4.13-16.97
		c1.03-3.11,2.19-6.17,3.44-9.2c0.81-1.96,2.12-3.54,3.8-4.81c1.59-1.21,3.37-2.08,5.25-2.73c2.52-0.87,5.11-1.4,7.77-1.68
		c3.03-0.32,6.06-0.32,9.1-0.25c1.52,0.04,3.04,0.06,4.55,0.19c2.5,0.21,4.96,0.68,7.25,1.76c0.7,0.33,1.37,0.72,2.02,1.13
		c1.92,1.21,3.12,2.95,3.79,5.1c0.28,0.9,0.3,1.82,0.17,2.71c-0.65,4.5-1.58,8.94-2.74,13.33c-1.34,5.06-3.05,10-5.16,14.79
		c-1.35,3.06-3.58,5.31-6.49,6.91c-1.83,1.01-3.79,1.64-5.85,1.92c-1.81,0.25-3.62,0.49-5.44,0.66
		C338.78,111.51,336.66,111.56,333.95,111.56z M344.49,72.07c-0.7,0.05-1.6,0.09-2.49,0.2c-1.35,0.16-2.63,0.57-3.8,1.3
		c-0.93,0.58-1.59,1.37-1.96,2.4c-0.82,2.3-1.68,4.59-2.48,6.9c-1.61,4.68-2.94,9.44-3.97,14.29c-0.41,1.94,0.47,3.54,1.85,4.27
		c0.54,0.29,1.11,0.45,1.71,0.56c0.69,0.12,1.37,0.03,2.06,0.02c1.52-0.03,3.04-0.07,4.53-0.37c1.14-0.23,2.22-0.59,3.19-1.26
		c0.78-0.55,1.3-1.27,1.55-2.19c0.06-0.22,0.14-0.43,0.22-0.64c1.35-3.23,2.58-6.5,3.68-9.83c1.24-3.74,2.22-7.55,2.99-11.41
		c0.3-1.49-0.12-2.53-1.63-3.33c-0.32-0.17-0.67-0.29-1.02-0.39C347.57,72.17,346.13,72.15,344.49,72.07z"/>
	<path class="st1" d="M466.43,110.91c4.7-15.93,9.38-31.81,14.07-47.73c0.18,0,0.33,0,0.48,0c8.48,0,16.96,0,25.44,0
		c2.32,0,4.6,0.28,6.8,1.06c1.81,0.64,3.37,1.68,4.66,3.1c1.41,1.54,2.19,3.38,2.46,5.45c0.16,1.23,0.04,2.44-0.14,3.65
		c-0.57,3.8-1.57,7.51-2.58,11.21c-1.04,3.83-2.27,7.59-3.7,11.29c-0.58,1.49-1.33,2.88-2.3,4.16c-1.34,1.77-2.76,3.45-4.52,4.81
		c-1.54,1.19-3.22,2.11-5.11,2.61c-0.89,0.23-1.79,0.33-2.71,0.33c-5.58,0.01-11.17,0.03-16.75,0.05
		c-5.19,0.01-10.38,0.01-15.57,0.02C466.8,110.91,466.65,110.91,466.43,110.91z M483.6,101.1c0.16,0.01,0.25,0.03,0.35,0.03
		c3.22,0,6.44,0.01,9.66-0.02c0.88-0.01,1.77-0.11,2.64-0.24c1.34-0.2,2.42-0.85,3.21-1.97c0.57-0.81,1.03-1.67,1.4-2.59
		c1.74-4.33,3.22-8.76,4.55-13.23c0.56-1.87,1.11-3.74,1.48-5.67c0.3-1.52-0.08-2.88-0.98-4.09c-0.75-1-1.74-1.53-3.04-1.52
		c-3.43,0.03-6.86,0.01-10.29,0.01c-0.15,0-0.31,0-0.49,0C489.25,81.57,486.43,91.31,483.6,101.1z"/>
	<path class="st1" d="M378.72,63.23c0.2,0,0.34,0,0.48,0c7.86,0,15.72,0,23.59,0c2.31,0,4.57,0.35,6.73,1.19
		c2.44,0.95,4.43,2.48,5.8,4.75c0.71,1.18,1.14,2.45,1.21,3.82c0.25,4.9-0.86,9.49-3.25,13.76c-1.21,2.16-2.69,4.12-4.42,5.89
		c-1.24,1.27-2.61,2.35-4.17,3.2c-0.1,0.05-0.19,0.12-0.31,0.19c1.62,4.92,3.23,9.82,4.86,14.77c-4.51,0-8.97,0-13.49,0
		c-1.53-4.47-3.07-8.97-4.61-13.48c-2.96,0-5.9,0-8.88,0c-1.37,4.49-2.73,8.99-4.1,13.5c-4.63,0-9.22,0-13.88,0
		C369.08,94.94,373.9,79.1,378.72,63.23z M385.22,87.46c0.18,0.01,0.29,0.03,0.4,0.03c2.31,0,4.61,0,6.92,0
		c0.96,0,1.91-0.07,2.85-0.27c1.39-0.3,2.58-0.92,3.5-2.04c0.27-0.33,0.56-0.63,0.85-0.94c1.92-2.11,2.98-4.57,3.08-7.43
		c0.05-1.34-0.34-2.53-1.18-3.56c-0.75-0.92-1.72-1.41-2.93-1.41c-2.76,0.01-5.51,0-8.27,0c-0.15,0-0.3,0-0.47,0
		C388.38,77.06,386.81,82.24,385.22,87.46z"/>
	<path class="st1" d="M466.91,74.51c-0.26,0-0.45,0-0.63,0c-6.51,0-13.03,0-19.54,0c-0.31,0-0.62,0-0.93,0.05
		c-0.61,0.1-1.15,0.37-1.59,0.8c-0.58,0.56-1.07,1.2-1.43,1.92c-0.36,0.72-0.69,1.45-0.99,2.19c-0.29,0.7-0.56,1.41-0.96,2.06
		c-0.03,0.04-0.04,0.1-0.07,0.19c0.11,0,0.19,0.01,0.27,0c1.91-0.18,3.82-0.12,5.73-0.11c3.77,0.02,7.54,0.04,11.31,0.06
		c0.17,0,0.33,0,0.57,0c-0.27,1.06-0.61,2.05-0.92,3.05c-0.31,1.02-0.63,2.04-0.95,3.06c-0.31,1.01-0.62,2.01-0.94,3.05
		c-6.04,0-12.07,0-18.1,0c-0.18,0.71-0.35,1.37-0.53,2.03c-0.32,1.12-0.63,2.24-0.85,3.39c-0.22,1.11,0.16,1.95,1,2.64
		c0.31,0.25,0.66,0.43,1.06,0.48c1.27,0.16,2.53,0.35,3.81,0.47c2.02,0.19,4.04,0.28,6.07,0.25c3.89-0.06,7.75-0.41,11.57-1.12
		c0.1-0.02,0.19-0.03,0.29-0.04c0.04,0,0.08,0.02,0.16,0.04c-1.13,3.92-2.26,7.83-3.38,11.74c-0.87,0.12-1.7,0.26-2.54,0.35
		c-1.63,0.18-3.27,0.39-4.91,0.5c-2.06,0.14-4.13,0.23-6.19,0.3c-2.77,0.1-5.54,0.01-8.31-0.18c-1.72-0.12-3.45-0.26-5.17-0.44
		c-2.11-0.23-3.94-1.07-5.41-2.65c-1.39-1.49-2.23-3.25-2.74-5.2c-0.45-1.7-0.55-3.43-0.53-5.19c0.02-1.81,0.37-3.58,0.74-5.34
		c1.18-5.57,2.89-10.97,5.19-16.19c0.04-0.1,5.09-12.07,9.9-13.06c1.63-0.34,3.28-0.52,4.94-0.53c3.39-0.02,6.78-0.01,10.17-0.01
		c5.89,0,11.79,0,17.68,0c0.18,0,0.36,0,0.61,0C469.21,66.9,468.06,70.7,466.91,74.51z"/>
	<path class="st1" d="M537.34,137.28c-0.79-4.11-1.57-8.17-2.36-12.26c-0.27,0.13-0.25,0.39-0.31,0.57
		c-1.17,3.85-2.34,7.71-3.5,11.56c-0.53,1.75-1.06,3.5-1.59,5.25c-0.05,0.18-0.12,0.35-0.19,0.55c-2.57,0-5.14,0-7.78,0
		c2.64-8.73,5.27-17.43,7.9-26.12c0.15-0.01,0.26-0.02,0.37-0.02c2.54,0,5.08,0,7.61,0c0.72,0,1.4,0.19,2.03,0.54
		c1,0.56,1.63,1.38,1.83,2.53c0.31,1.74,0.67,3.48,1.01,5.22c0.02,0.1,0.06,0.2,0.12,0.42c0.19-0.22,0.32-0.37,0.44-0.52
		c1.5-1.88,3-3.76,4.51-5.64c1.11-1.38,2.53-2.24,4.29-2.5c0.18-0.03,0.37-0.04,0.56-0.04c2.31,0,4.63,0,6.94,0
		c0.07,0,0.15,0.01,0.22,0.02c0,0.42-7.35,25.02-7.81,26.14c-2.6,0-5.2,0-7.87,0c1.79-5.88,3.57-11.72,5.34-17.57
		c-0.03-0.02-0.06-0.04-0.09-0.07c-0.14,0.15-0.28,0.3-0.41,0.46c-3.06,3.69-6.13,7.38-9.18,11.08c-0.25,0.3-0.49,0.46-0.89,0.43
		C538.17,137.25,537.79,137.28,537.34,137.28z"/>
	<path class="st1" d="M505.15,143.38c-1.69-0.05-3.43-0.01-5.14-0.41c-0.78-0.18-1.56-0.39-2.29-0.7c-2.32-0.97-3.45-3-3.2-5.52
		c0.31-3.17,1.13-6.23,2.13-9.24c0.62-1.87,1.35-3.71,2.05-5.56c0.47-1.25,1.3-2.21,2.38-2.97c1.35-0.95,2.88-1.47,4.47-1.85
		c1.61-0.38,3.24-0.54,4.88-0.55c1.68-0.01,3.36,0.01,5.03,0.11c1.59,0.1,3.13,0.44,4.56,1.21c1.23,0.66,2.14,1.59,2.61,2.94
		c0.24,0.68,0.23,1.36,0.13,2.04c-0.8,5.1-2.11,10.06-4.16,14.82c-1.2,2.8-3.36,4.41-6.28,5.03
		C509.98,143.25,507.59,143.37,505.15,143.38z M505.71,138.24c0-0.02,0-0.05,0-0.07c0.3,0,0.6,0.02,0.89,0
		c0.91-0.06,1.82-0.15,2.67-0.52c0.75-0.33,1.32-0.83,1.53-1.67c0.04-0.16,0.12-0.31,0.18-0.47c0.63-1.69,1.29-3.38,1.89-5.08
		c0.73-2.08,1.26-4.21,1.68-6.37c0.17-0.87-0.1-1.45-0.89-1.84c-0.25-0.12-0.52-0.22-0.79-0.28c-1.1-0.24-2.21-0.28-3.34-0.16
		c-0.83,0.09-1.61,0.29-2.33,0.72c-0.51,0.31-0.89,0.73-1.1,1.3c-1.46,3.82-2.72,7.69-3.57,11.7c-0.26,1.26,0.35,2.28,1.61,2.59
		C504.66,138.2,505.19,138.19,505.71,138.24z"/>
	<path class="st1" d="M496.78,116.72c-0.63,2.08-1.26,4.13-1.89,6.22c-0.24,0-0.46,0-0.68,0c-3.55,0-7.09,0.02-10.64-0.01
		c-1.06-0.01-1.75,0.42-2.25,1.33c-1.85,3.34-3.02,6.89-3.45,10.68c-0.11,0.92,0.33,1.49,1.26,1.64c0.72,0.12,1.44,0.21,2.17,0.25
		c1.36,0.07,2.72,0.12,4.08,0.13c1.72,0.02,3.42-0.2,5.12-0.5c0.07-0.01,0.14-0.02,0.3-0.03c-0.59,2.18-1.23,4.29-1.85,6.46
		c-0.77,0.1-1.52,0.22-2.28,0.3c-2.51,0.27-5.02,0.43-7.54,0.33c-1.68-0.06-3.35-0.18-5.02-0.34c-1.8-0.17-3.07-1.15-3.91-2.72
		c-0.57-1.07-0.82-2.23-0.91-3.44c-0.11-1.45,0.15-2.86,0.44-4.27c0.6-2.93,1.37-5.8,2.58-8.55c0.66-1.51,1.43-2.95,2.49-4.23
		c0.73-0.88,1.58-1.64,2.55-2.24c1.11-0.68,2.32-1.03,3.61-1.04c5.13-0.01,10.26-0.01,15.39,0
		C496.47,116.69,496.59,116.71,496.78,116.72z"/>
	<path class="st1" d="M376.92,142.96c-2.66,0-5.28,0-7.97,0c2.05-6.65,4.08-13.25,6.12-19.87c-0.1-0.04-0.17-0.08-0.24-0.08
		c-2-0.06-3.99-0.03-5.96,0.41c-1.41,0.31-2.61,0.98-3.53,2.11c-0.16,0.2-0.32,0.42-0.53,0.57c-0.11,0.08-0.33,0.08-0.46,0.03
		c-0.18-0.08-0.08-0.26-0.01-0.39c0.91-1.67,1.81-3.35,3-4.85c1.89-2.37,4.4-3.63,7.38-3.98c0.74-0.09,1.49-0.14,2.23-0.17
		c0.56-0.02,1.11,0.06,1.67,0.06c4.05,0.01,8.1,0,12.15,0c0.2,0,0.41,0,0.7,0c-0.61,2.1-1.26,4.13-1.89,6.2c-0.24,0-0.44,0-0.65,0
		c-1.77,0-3.55,0-5.32,0c-0.62,0-0.62,0-0.8,0.59c-1.91,6.28-3.82,12.55-5.73,18.83C377.04,142.59,376.99,142.75,376.92,142.96z"/>
	<path class="st1" d="M423.5,116.83c2.6,0,5.18,0,7.82,0c-0.06,0.23-0.09,0.43-0.15,0.62c-1.36,4.47-2.74,8.94-4.07,13.43
		c-0.39,1.3-0.71,2.62-0.89,3.98c-0.11,0.79,0.78,1.78,1.45,1.87c2.15,0.3,4.31,0.4,6.47,0.17c1.67-0.18,3.32-0.46,4.98-0.7
		c0.05-0.01,0.11,0.01,0.23,0.02c-0.62,2.14-1.23,4.26-1.85,6.41c-0.71,0.11-1.4,0.24-2.1,0.33c-2.41,0.31-4.82,0.51-7.25,0.47
		c-2.02-0.04-4.02-0.18-6.01-0.54c-2.59-0.47-4.12-2.24-4.25-4.87c-0.05-1.07,0.02-2.13,0.29-3.16c0.74-2.75,1.48-5.5,2.29-8.24
		c0.93-3.13,1.92-6.23,2.89-9.35C423.39,117.12,423.45,116.98,423.5,116.83z"/>
	<path class="st1" d="M571.41,74.51c-0.26,0-0.45,0-0.63,0c-6.51,0-13.03,0-19.54,0c-0.31,0-0.62,0-0.93,0.05
		c-0.61,0.1-1.15,0.37-1.59,0.8c-0.58,0.56-1.07,1.2-1.43,1.92c-0.36,0.72-0.69,1.45-0.99,2.19c-0.29,0.7-0.56,1.41-0.96,2.06
		c-0.03,0.04-0.04,0.1-0.07,0.19c0.11,0,0.19,0.01,0.27,0c1.91-0.18,3.82-0.12,5.73-0.11c3.77,0.02,7.54,0.04,11.31,0.06
		c0.17,0,0.33,0,0.57,0c-0.27,1.06-0.61,2.05-0.92,3.05c-0.31,1.02-0.63,2.04-0.95,3.06c-0.31,1.01-0.62,2.01-0.94,3.05
		c-6.04,0-12.07,0-18.1,0c-0.18,0.71-0.35,1.37-0.53,2.03c-0.32,1.12-0.63,2.24-0.85,3.39c-0.22,1.11,0.16,1.95,1,2.64
		c0.31,0.25,0.66,0.43,1.06,0.48c1.27,0.16,2.53,0.35,3.81,0.47c2.02,0.19,4.04,0.28,6.07,0.25c3.89-0.06,7.75-0.41,11.57-1.12
		c0.1-0.02,0.19-0.03,0.29-0.04c0.04,0,0.08,0.02,0.16,0.04c-1.13,3.92-2.26,7.83-3.38,11.74c-0.87,0.12-1.7,0.26-2.54,0.35
		c-1.63,0.18-3.27,0.39-4.91,0.5c-2.06,0.14-4.13,0.23-6.19,0.3c-2.77,0.1-5.54,0.01-8.31-0.18c-1.72-0.12-3.45-0.26-5.17-0.44
		c-2.11-0.23-3.94-1.07-5.41-2.65c-1.39-1.49-2.23-3.25-2.74-5.2c-0.45-1.7-0.55-3.43-0.53-5.19c0.02-1.81,0.37-3.58,0.74-5.34
		c1.18-5.57,2.89-10.97,5.19-16.19c0.04-0.1,5.09-12.07,9.9-13.06c1.63-0.34,3.28-0.52,4.94-0.53c3.39-0.02,6.78-0.01,10.17-0.01
		c5.89,0,11.79,0,17.68,0c0.18,0,0.36,0,0.61,0C573.72,66.9,572.57,70.7,571.41,74.51z"/>
	<path class="st1" d="M314.18,74.51c-0.26,0-0.45,0-0.63,0c-6.51,0-13.03,0-19.54,0c-0.31,0-0.62,0-0.93,0.05
		c-0.61,0.1-1.15,0.37-1.59,0.8c-0.58,0.56-1.07,1.2-1.43,1.92c-0.36,0.72-0.69,1.45-0.99,2.19c-0.29,0.7-0.56,1.41-0.96,2.06
		c-0.03,0.04-0.04,0.1-0.07,0.19c0.11,0,0.19,0.01,0.27,0c1.91-0.18,3.82-0.12,5.73-0.11c3.77,0.02,7.54,0.04,11.31,0.06
		c0.17,0,0.33,0,0.57,0c-0.27,1.06-0.61,2.05-0.92,3.05c-0.31,1.02-0.63,2.04-0.95,3.06c-0.31,1.01-0.62,2.01-0.94,3.05
		c-6.04,0-12.07,0-18.1,0c-0.18,0.71-0.35,1.37-0.53,2.03c-0.32,1.12-0.63,2.24-0.85,3.39c-0.22,1.11,0.16,1.95,1,2.64
		c0.31,0.25,0.66,0.43,1.06,0.48c1.27,0.16,2.53,0.35,3.81,0.47c2.02,0.19,4.04,0.28,6.07,0.25c3.89-0.06,7.75-0.41,11.57-1.12
		c0.1-0.02,0.19-0.03,0.29-0.04c0.04,0,0.08,0.02,0.16,0.04c-1.13,3.92-2.26,7.83-3.38,11.74c-0.87,0.12-1.7,0.26-2.54,0.35
		c-1.63,0.18-3.27,0.39-4.91,0.5c-2.06,0.14-4.13,0.23-6.19,0.3c-2.77,0.1-5.54,0.01-8.31-0.18c-1.72-0.12-3.45-0.26-5.17-0.44
		c-2.11-0.23-3.94-1.07-5.41-2.65c-1.39-1.49-2.23-3.25-2.74-5.2c-0.45-1.7-0.55-3.43-0.53-5.19c0.02-1.81,0.37-3.58,0.74-5.34
		c1.18-5.57,2.89-10.97,5.19-16.19c0.04-0.1,5.09-12.07,9.9-13.06c1.63-0.34,3.28-0.52,4.94-0.53c3.39-0.02,6.78-0.01,10.17-0.01
		c5.89,0,11.79,0,17.68,0c0.18,0,0.36,0,0.61,0C316.49,66.9,315.34,70.7,314.18,74.51z"/>
	<path class="st1" d="M468.64,123.02c-0.15,0-0.25,0-0.35,0c-3.6,0-7.21,0-10.81,0c-0.17,0-0.34,0-0.51,0.03
		c-0.34,0.05-0.63,0.2-0.88,0.44c-0.32,0.31-0.59,0.66-0.79,1.06c-0.2,0.4-0.38,0.8-0.55,1.21c-0.16,0.39-0.31,0.78-0.53,1.14
		c-0.02,0.02-0.02,0.05-0.04,0.1c0.06,0,0.11,0,0.15,0c1.06-0.1,2.11-0.07,3.17-0.06c2.09,0.01,4.17,0.02,6.26,0.03
		c0.09,0,0.19,0,0.32,0c-0.15,0.59-0.34,1.13-0.51,1.68c-0.17,0.57-0.35,1.13-0.52,1.69c-0.17,0.56-0.34,1.11-0.52,1.69
		c-3.34,0-6.68,0-10.01,0c-0.1,0.39-0.19,0.76-0.29,1.13c-0.18,0.62-0.35,1.24-0.47,1.88c-0.12,0.62,0.09,1.08,0.55,1.46
		c0.17,0.14,0.37,0.24,0.59,0.27c0.7,0.09,1.4,0.19,2.11,0.26c1.12,0.11,2.24,0.15,3.36,0.14c2.15-0.03,4.29-0.22,6.4-0.62
		c0.05-0.01,0.11-0.02,0.16-0.02c0.02,0,0.04,0.01,0.09,0.02c-0.62,2.17-1.25,4.33-1.87,6.49c-0.48,0.07-0.94,0.14-1.4,0.2
		c-0.9,0.1-1.81,0.21-2.71,0.28c-1.14,0.08-2.28,0.13-3.43,0.17c-1.53,0.05-3.07,0.01-4.6-0.1c-0.95-0.07-1.91-0.14-2.86-0.25
		c-1.17-0.13-2.18-0.59-2.99-1.47c-0.77-0.83-1.24-1.8-1.52-2.88c-0.25-0.94-0.31-1.9-0.29-2.87c0.01-1,0.2-1.98,0.41-2.95
		c0.65-3.08,1.6-6.07,2.87-8.96c0.02-0.05,2.82-6.67,5.48-7.23c0.9-0.19,1.81-0.29,2.73-0.3c1.88-0.01,3.75-0.01,5.63-0.01
		c3.26,0,6.52,0,9.78,0c0.1,0,0.2,0,0.34,0C469.91,118.81,469.28,120.91,468.64,123.02z"/>
	<path class="st1" d="M417.35,123.02c-0.15,0-0.25,0-0.35,0c-3.6,0-7.21,0-10.81,0c-0.17,0-0.34,0-0.51,0.03
		c-0.34,0.05-0.63,0.2-0.88,0.44c-0.32,0.31-0.59,0.66-0.79,1.06c-0.2,0.4-0.38,0.8-0.55,1.21c-0.16,0.39-0.31,0.78-0.53,1.14
		c-0.02,0.02-0.02,0.05-0.04,0.1c0.06,0,0.11,0,0.15,0c1.06-0.1,2.11-0.07,3.17-0.06c2.09,0.01,4.17,0.02,6.26,0.03
		c0.09,0,0.19,0,0.32,0c-0.15,0.59-0.34,1.13-0.51,1.68c-0.17,0.57-0.35,1.13-0.52,1.69c-0.17,0.56-0.34,1.11-0.52,1.69
		c-3.34,0-6.68,0-10.01,0c-0.1,0.39-0.19,0.76-0.29,1.13c-0.18,0.62-0.35,1.24-0.47,1.88c-0.12,0.62,0.09,1.08,0.55,1.46
		c0.17,0.14,0.37,0.24,0.59,0.27c0.7,0.09,1.4,0.19,2.11,0.26c1.12,0.11,2.24,0.15,3.36,0.14c2.15-0.03,4.29-0.22,6.4-0.62
		c0.05-0.01,0.11-0.02,0.16-0.02c0.02,0,0.04,0.01,0.09,0.02c-0.62,2.17-1.25,4.33-1.87,6.49c-0.48,0.07-0.94,0.14-1.4,0.2
		c-0.9,0.1-1.81,0.21-2.71,0.28c-1.14,0.08-2.28,0.13-3.43,0.17c-1.53,0.05-3.07,0.01-4.6-0.1c-0.95-0.07-1.91-0.14-2.86-0.25
		c-1.17-0.13-2.18-0.59-2.99-1.47c-0.77-0.83-1.24-1.8-1.52-2.88c-0.25-0.94-0.31-1.9-0.29-2.87c0.01-1,0.2-1.98,0.41-2.95
		c0.65-3.08,1.6-6.07,2.87-8.96c0.02-0.05,2.82-6.67,5.48-7.23c0.9-0.19,1.81-0.29,2.73-0.3c1.88-0.01,3.75-0.01,5.63-0.01
		c3.26,0,6.52,0,9.78,0c0.1,0,0.2,0,0.34,0C418.63,118.81,417.99,120.91,417.35,123.02z"/>
</g>
<g>
	<g>
		<path class="st1" d="M46.71,152.43c10.01,0,19.9,0,29.84,0c1.75-5.78,3.49-11.54,5.24-17.3c1.74-5.73,3.48-11.47,5.22-17.2
			c1.75-5.76,3.47-11.53,5.23-17.29c1.75-5.74,3.46-11.5,5.24-17.23c0.07,0.01,0.14,0.01,0.22,0.02
			c2.57,12.26,5.14,24.52,7.71,36.77c6.05-16.01,12.1-32.01,18.15-48.02c-0.2-2.93-1.36-7.86-1.5-8.49
			c-0.32-1.38-0.63-2.49-1.34-3.78c-0.82-1.48-1.94-2.77-3.35-3.89c-3-2.39-6.45-3.53-10.27-3.53c-9.75-0.01-19.5,0-29.25,0
			c-0.26,0-0.53,0-0.9,0C66.85,85.84,56.79,119.11,46.71,152.43z"/>
	</g>
	<g>
		<path class="st1" d="M186.97,52.49c-10.01,0-19.9,0-29.84,0c-1.75,5.78-3.49,11.54-5.24,17.3c-1.74,5.73-3.48,11.47-5.22,17.2
			c-1.75,5.76-3.47,11.53-5.23,17.29c-1.75,5.74-3.46,11.5-5.24,17.23c-0.07-0.01-0.14-0.01-0.22-0.02
			c-2.57-12.26-5.14-24.52-7.71-36.77c-6.05,16.01-12.1,32.01-18.15,48.02c0.2,2.93,1.36,7.86,1.5,8.49
			c0.32,1.38,0.63,2.49,1.34,3.78c0.82,1.48,1.94,2.77,3.35,3.89c3,2.39,6.45,3.53,10.27,3.53c9.75,0.01,19.5,0,29.25,0
			c0.26,0,0.53,0,0.9,0C166.83,119.09,176.89,85.82,186.97,52.49z"/>
	</g>
</g>
</svg>
