<?xml version="1.0" encoding="utf-8"?>
<!-- Generator: Adobe Illustrator 25.0.1, SVG Export Plug-In . SVG Version: 6.00 Build 0)  -->
<svg version="1.2" baseProfile="tiny" id="Camada_1"
	 xmlns="http://www.w3.org/2000/svg" xmlns:xlink="http://www.w3.org/1999/xlink" x="0px" y="0px" viewBox="0 0 205 53"
	 overflow="visible" xml:space="preserve">
<g>
	<path fill="#212121" d="M11.02,12.04v-0.1c-2.92,0-5.73,1.16-7.79,3.23C1.16,17.23,0,20.04,0,22.96v10.61h9.08V22.35h3.88v11.33
		h9.08V23.06c0-2.92-1.16-5.73-3.23-7.79C16.75,13.2,13.94,12.04,11.02,12.04z"/>
	<path fill="#212121" d="M91.23,29.29c1.73-1.53,2.35-4.39,2.35-6.22V14.6c0-3.98-5-5.31-6.63-1.63c-1.39-0.59-2.88-0.9-4.39-0.92
		c-2.73,0.26-5.26,1.53-7.1,3.56s-2.86,4.67-2.86,7.41s1.02,5.38,2.86,7.41c1.84,2.03,4.37,3.3,7.1,3.56
		c0.79,0.02,1.57-0.05,2.35-0.2c0.35,0.26,0.63,0.6,0.82,0.99c0.19,0.39,0.3,0.82,0.3,1.25c0.01,0.41-0.06,0.82-0.2,1.2
		s-0.37,0.73-0.66,1.03s-0.63,0.53-1.01,0.69c-0.38,0.16-0.78,0.24-1.2,0.24c-0.85-0.03-1.65-0.38-2.24-0.99s-0.92-1.43-0.92-2.27
		h-7.86c0,1.44,0.29,2.87,0.84,4.2s1.37,2.54,2.39,3.55s2.24,1.82,3.58,2.36c1.34,0.54,2.77,0.82,4.21,0.8
		c6.12,0,11.12-4.8,11.12-10.51h0.1c0.03-1.32-0.22-2.62-0.73-3.84C92.94,31.28,92.18,30.19,91.23,29.29z M85.06,25.17
		c-0.61,0.61-1.44,0.96-2.31,0.96c-0.65,0-1.28-0.19-1.81-0.55c-0.54-0.36-0.96-0.87-1.2-1.47c-0.25-0.6-0.31-1.25-0.19-1.89
		c0.13-0.63,0.44-1.22,0.89-1.67s1.04-0.77,1.67-0.89c0.63-0.13,1.29-0.06,1.89,0.19s1.11,0.67,1.47,1.2
		c0.36,0.54,0.55,1.17,0.55,1.81C86.02,23.72,85.68,24.55,85.06,25.17z"/>
	<path fill="#212121" d="M67.35,29.29c1.73-1.53,2.35-4.39,2.35-6.22V14.6c0-3.98-5-5.31-6.63-1.63c-1.39-0.59-2.88-0.9-4.39-0.92
		c-2.73,0.26-5.26,1.53-7.1,3.56s-2.86,4.67-2.86,7.41s1.02,5.38,2.86,7.41s4.37,3.3,7.1,3.56c0.79,0.02,1.57-0.05,2.35-0.2
		c0.35,0.26,0.63,0.6,0.82,0.99c0.19,0.39,0.3,0.82,0.3,1.25c0.01,0.41-0.06,0.82-0.2,1.2s-0.37,0.73-0.66,1.03
		s-0.63,0.53-1.01,0.69c-0.38,0.16-0.78,0.24-1.2,0.24c-0.85-0.03-1.65-0.38-2.24-0.99s-0.92-1.43-0.92-2.27h-7.86
		c0,1.44,0.29,2.87,0.84,4.2c0.56,1.33,1.37,2.54,2.39,3.55s2.24,1.82,3.58,2.36s2.77,0.82,4.21,0.8c6.12,0,11.12-4.8,11.12-10.51
		h0.1c0.03-1.32-0.22-2.62-0.73-3.84S68.31,30.19,67.35,29.29z M61.19,25.17c-0.61,0.61-1.44,0.96-2.31,0.96
		c-0.65,0-1.28-0.19-1.81-0.55c-0.54-0.36-0.96-0.87-1.2-1.47c-0.25-0.6-0.31-1.25-0.19-1.89c0.13-0.63,0.44-1.22,0.89-1.67
		c0.46-0.46,1.04-0.77,1.67-0.89c0.63-0.13,1.29-0.06,1.89,0.19s1.11,0.67,1.47,1.2c0.36,0.54,0.55,1.17,0.55,1.81
		C62.14,23.72,61.8,24.55,61.19,25.17z"/>
	<path fill="#212121" d="M34.9,11.94c-2.18,0-4.31,0.65-6.12,1.86s-3.22,2.93-4.06,4.95c-0.83,2.01-1.05,4.23-0.63,6.37
		c0.43,2.14,1.47,4.1,3.02,5.64c1.54,1.54,3.5,2.59,5.64,3.02s4.35,0.21,6.37-0.63c2.01-0.83,3.73-2.25,4.95-4.06
		c1.21-1.81,1.86-3.94,1.86-6.12c0-2.92-1.16-5.73-3.23-7.79C40.62,13.1,37.82,11.94,34.9,11.94z M37.21,25.17
		c-0.61,0.61-1.44,0.96-2.31,0.96c-0.65,0-1.28-0.19-1.81-0.55c-0.54-0.36-0.96-0.87-1.2-1.47c-0.25-0.6-0.31-1.25-0.19-1.89
		c0.13-0.63,0.44-1.22,0.89-1.67c0.46-0.46,1.04-0.77,1.67-0.89c0.63-0.13,1.29-0.06,1.89,0.19s1.11,0.67,1.47,1.2
		c0.36,0.54,0.55,1.17,0.55,1.81C38.16,23.72,37.82,24.55,37.21,25.17z"/>
	<path fill="#212121" d="M100.82,10c0.99,0,1.96-0.29,2.78-0.84s1.46-1.33,1.84-2.24s0.48-1.92,0.28-2.89s-0.67-1.86-1.37-2.56
		c-0.7-0.7-1.59-1.18-2.56-1.37c-0.97-0.2-1.97-0.1-2.89,0.28c-0.91,0.38-1.69,1.02-2.24,1.84C96.11,3.04,95.82,4.01,95.82,5
		c0,1.33,0.53,2.6,1.46,3.54C98.22,9.47,99.49,10,100.82,10z"/>
	<path fill="#212121" d="M105.21,33.67V16.53c0.1-0.65,0.05-1.32-0.13-1.96c-0.18-0.63-0.5-1.22-0.93-1.72s-0.96-0.9-1.57-1.18
		c-0.6-0.28-1.25-0.42-1.91-0.42s-1.31,0.14-1.91,0.42c-0.6,0.28-1.13,0.68-1.57,1.18c-0.43,0.5-0.75,1.09-0.93,1.72
		s-0.23,1.3-0.13,1.96v17.24L105.21,33.67z"/>
	<path fill="#212121" d="M130,33.67V23.06c0-2.92-1.16-5.73-3.23-7.79c-2.07-2.07-4.87-3.23-7.79-3.23v-0.1
		c-2.92,0-5.73,1.16-7.79,3.23c-2.07,2.07-3.23,4.87-3.23,7.79v10.61h9.08V22.35h3.88v11.33H130V33.67z"/>
	<path fill="#212121" d="M107.24,46.52c0.31-0.19,0.57-0.46,0.75-0.78s0.27-0.68,0.27-1.05c0-2.14-1.73-2.65-3.57-2.65h-1.22
		l-0.1,9.69h2.35c1.73,0,3.47-0.82,3.47-2.76c-0.01-0.57-0.2-1.11-0.55-1.56S107.79,46.66,107.24,46.52z M104.79,43.15h0.31
		c1.12,0,2.04,0.2,2.04,1.63s-1.02,1.63-2.14,1.63h-0.31L104.79,43.15z M105.61,50.81h-0.92v-3.37h0.72c1.12,0,2.55,0.2,2.55,1.63
		S106.73,50.81,105.61,50.81z"/>
	<polygon fill="#212121" points="113.48,46.21 111.03,42.03 109.6,42.03 112.97,47.54 112.97,51.83 114.19,51.83 114.19,47.54 
		117.35,42.03 115.92,42.03 	"/>
	<path fill="#212121" d="M183.16,38.37c-1.53,0-2.76,1.22-2.76,3.16v6.63c0,0.92-0.51,1.12-0.71,0.1c-0.51-2.86-3.78-2.65-4.8-0.92
		c-1.02,1.73,0,3.37,1.53,4.39c1.12,0.63,2.39,0.94,3.67,0.92h0.1c3.88,0,5.51-2.14,5.51-5.51l0.2-6.02c0-0.73-0.29-1.43-0.81-1.95
		C184.59,38.66,183.89,38.37,183.16,38.37z"/>
	<path fill="#212121" d="M182.95,37.45c0.55,0,1.08-0.16,1.53-0.46s0.81-0.73,1.02-1.24c0.21-0.5,0.26-1.06,0.16-1.59
		c-0.11-0.53-0.37-1.03-0.75-1.41c-0.39-0.39-0.88-0.65-1.41-0.75c-0.53-0.11-1.09-0.05-1.59,0.16s-0.93,0.56-1.24,1.01
		c-0.3,0.45-0.46,0.99-0.46,1.53c0,0.73,0.29,1.43,0.81,1.95C181.52,37.16,182.22,37.45,182.95,37.45z"/>
	<path fill="#212121" d="M199.6,41.74c0.12-0.7-0.03-1.42-0.43-2.01s-1.01-1-1.71-1.15c-0.82-0.14-1.67-0.08-2.47,0.16
		c-0.8,0.25-1.53,0.68-2.12,1.26l-0.51,0.41c-0.23-0.58-0.65-1.06-1.19-1.37c-0.54-0.31-1.17-0.43-1.79-0.33
		c-0.62,0.09-1.18,0.4-1.6,0.85c-0.42,0.46-0.68,1.04-0.73,1.67v11.12l5.41-0.2V44.8c0-0.33,0.09-0.65,0.25-0.93
		c0.16-0.29,0.39-0.53,0.67-0.7c0.66-0.15,1.35-0.04,1.94,0.31C197.56,44.29,199.39,43.16,199.6,41.74z"/>
	<path fill="#212121" d="M199.1,47.53c-0.39-0.39-0.88-0.65-1.41-0.75c-0.53-0.11-1.09-0.05-1.59,0.16s-0.93,0.56-1.24,1.01
		c-0.3,0.45-0.46,0.99-0.46,1.53c0,0.73,0.29,1.43,0.81,1.95s1.22,0.81,1.95,0.81c0.54,0,1.08-0.16,1.53-0.46s0.81-0.73,1.01-1.24
		c0.21-0.5,0.26-1.06,0.16-1.59C199.75,48.41,199.48,47.92,199.1,47.53z"/>
	<path fill="#212121" d="M130.71,38.27c-1.92,0-3.76,0.76-5.12,2.12s-2.12,3.2-2.12,5.12v6.63h5.51v-6.53
		c-0.01-0.68,0.17-1.35,0.51-1.94c0.1-0.24,0.27-0.45,0.49-0.59c0.22-0.15,0.47-0.22,0.73-0.22s0.52,0.08,0.74,0.22
		c0.22,0.15,0.39,0.35,0.49,0.59c0.34,0.59,0.52,1.26,0.51,1.94v6.53h5.51v-6.63c0-1.92-0.76-3.76-2.12-5.12
		C134.47,39.03,132.63,38.27,130.71,38.27z"/>
	<path fill="#212121" d="M143.44,31.81c-0.51-0.34-1.1-0.52-1.71-0.52s-1.2,0.18-1.71,0.52c-0.51,0.34-0.9,0.82-1.13,1.38
		c-0.23,0.56-0.29,1.18-0.16,1.78c0.12,0.6,0.42,1.14,0.85,1.57l0.71,0.71c1.12,1.12,1.23,1.43,0.1,2.45l-0.61,0.61
		c-0.52,0.51-0.81,1.21-0.82,1.94v9.9h5.51v-9.9c-0.01-0.73-0.3-1.43-0.82-1.94l-0.61-0.61c-1.02-1.02-1.02-1.33,0.1-2.45l0.71-0.71
		c0.43-0.43,0.73-0.97,0.85-1.57c0.12-0.6,0.07-1.21-0.16-1.78C144.34,32.63,143.94,32.15,143.44,31.81z"/>
	<path fill="#212121" d="M151.59,42.3c0.23-0.23,0.54-0.36,0.87-0.36s0.64,0.13,0.87,0.36s0.36,0.54,0.36,0.87
		c0.27,0.51,0.44,1.06,0.51,1.63h5.51c-0.17-1.86-1.05-3.58-2.45-4.8c-1.41-1.22-3.23-1.86-5.09-1.77s-3.62,0.89-4.91,2.23
		c-1.29,1.35-2.01,3.14-2.01,5s0.72,3.66,2.01,5c1.29,1.35,3.05,2.15,4.91,2.23s3.68-0.55,5.09-1.77c1.4-1.22,2.28-2.94,2.45-4.8
		h-5.51c-0.07,0.57-0.24,1.13-0.51,1.63c0,0.32-0.13,0.64-0.36,0.87s-0.54,0.36-0.87,0.36s-0.64-0.13-0.87-0.36
		s-0.36-0.54-0.36-0.87c-0.34-0.72-0.51-1.5-0.51-2.3c0-0.79,0.17-1.58,0.51-2.3C151.23,42.84,151.36,42.53,151.59,42.3z"/>
	<path fill="#212121" d="M171.02,46.13l2.04-3.78c0.25-0.31,0.44-0.67,0.54-1.05c0.1-0.39,0.12-0.79,0.05-1.18
		c-0.07-0.39-0.22-0.76-0.45-1.09s-0.52-0.6-0.87-0.8c-0.34-0.2-0.73-0.33-1.12-0.37c-0.4-0.04-0.8,0.01-1.17,0.14
		c-0.38,0.13-0.72,0.34-1.01,0.62s-0.51,0.61-0.66,0.98l-2.45,4.39v-2.96c0-0.73-0.29-1.43-0.81-1.95s-1.22-0.81-1.95-0.81
		s-1.43,0.29-1.95,0.81s-0.81,1.22-0.81,1.95v11.12h5.51v-4.29l2.86,4.29h4.39c0.13,0,0.26-0.03,0.38-0.08
		c0.12-0.05,0.22-0.13,0.31-0.23s0.15-0.21,0.19-0.33c0.04-0.12,0.05-0.25,0.04-0.38c0.02-0.18-0.02-0.35-0.1-0.51L171.02,46.13z"/>
	<polygon fill="#212121" points="201.12,39.48 201.63,39.48 201.73,41.01 202.04,41.01 202.04,39.48 202.55,39.48 202.55,39.18 
		201.12,39.18 	"/>
	<polygon fill="#212121" points="204.9,39.18 203.98,40.2 203.06,39.18 202.96,39.18 203.06,41.01 203.37,41.01 203.37,39.89 
		203.98,40.6 204.08,40.6 204.69,39.89 204.69,41.01 205,41.01 205,39.18 	"/>
</g>
</svg>
