<svg width="478" height="169" viewBox="0 0 478 169" fill="none" xmlns="http://www.w3.org/2000/svg">
<path d="M157.25 136.74H136.06V164.09H83.8701V136.74H1.14014V102.56L68.8201 4.57007H123.97L63.8101 95.0401H85.4601V70.6601H136.05V95.0401H157.24V136.74H157.25Z" stroke="white" stroke-miterlimit="10"/>
<path d="M164.76 84.32C164.76 31.45 194.84 0.910034 237 0.910034C279.16 0.910034 309.24 31.45 309.24 84.32C309.24 137.19 279.16 167.73 237 167.73C194.84 167.73 164.76 137.19 164.76 84.32ZM255.24 84.32C255.24 53.55 247.49 43.98 237.01 43.98C226.53 43.98 218.78 53.55 218.78 84.32C218.78 115.09 226.53 124.66 237.01 124.66C247.49 124.66 255.24 115.09 255.24 84.32Z" stroke="white" stroke-miterlimit="10"/>
<path d="M477.19 136.74H456V164.09H403.81V136.74H321.09V102.56L388.77 4.57007H443.92L383.76 95.0401H405.41V70.6601H456V95.0401H477.19V136.74Z" stroke="white" stroke-miterlimit="10"/>
<path d="M148.29 80.58V110.33H140.05L128.75 96.82V110.33H118.98V80.58H127.22L138.52 94.09V80.58H148.29V80.58Z" fill="#FF4E00"/>
<path d="M151.61 98.68C151.61 91.63 157.26 86.65 165.12 86.65C173.02 86.65 178.63 91.62 178.63 98.68C178.63 105.74 173.02 110.75 165.12 110.75C157.26 110.75 151.61 105.73 151.61 98.68ZM168.9 98.68C168.9 95.66 167.24 94.13 165.12 94.13C163 94.13 161.34 95.66 161.34 98.68C161.34 101.7 163 103.27 165.12 103.27C167.24 103.27 168.9 101.7 168.9 98.68Z" fill="#FF4E00"/>
<path d="M198.78 109.52C197.29 110.37 195.13 110.75 192.87 110.75C186.45 110.75 182.71 107.73 182.71 101.32V95.37H179.52V88.36H182.71V81.86H192.31V88.36H197.07V95.37H192.31V101.23C192.31 102.67 193.16 103.48 194.31 103.48C195.07 103.48 195.84 103.27 196.48 102.84L198.78 109.52Z" fill="#FF4E00"/>
<path d="M224.27 88.14V93.24H236.68V100.8H224.27V110.32H214.24V80.57H238.42V88.13H224.27V88.14Z" fill="#FF4E00"/>
<path d="M239.66 98.68C239.66 91.63 245.31 86.65 253.17 86.65C261.07 86.65 266.68 91.62 266.68 98.68C266.68 105.74 261.07 110.75 253.17 110.75C245.31 110.75 239.66 105.73 239.66 98.68ZM256.95 98.68C256.95 95.66 255.29 94.13 253.17 94.13C251.05 94.13 249.39 95.66 249.39 98.68C249.39 101.7 251.05 103.27 253.17 103.27C255.29 103.27 256.95 101.7 256.95 98.68Z" fill="#FF4E00"/>
<path d="M295.11 87.08V110.33H285.97V108.12C284.23 109.91 281.89 110.75 279.38 110.75C273.81 110.75 269.61 107.48 269.61 99.91V87.08H279.21V98.2599C279.21 101.57 280.36 102.68 282.23 102.68C283.89 102.68 285.5 101.45 285.5 98.0099V87.09H295.11V87.08Z" fill="#FF4E00"/>
<path d="M325.03 97.06V110.32H315.43V98.72C315.43 95.83 314.32 94.73 312.58 94.73C310.62 94.73 308.97 95.96 308.97 99.4V110.32H299.37V87.07H308.51V89.36C310.34 87.53 312.8 86.64 315.52 86.64C320.86 86.65 325.03 89.76 325.03 97.06Z" fill="#FF4E00"/>
<path d="M355.33 78.79V110.32H346.19V108.41C344.79 109.98 342.71 110.75 339.82 110.75C333.74 110.75 328.6 106.16 328.6 98.68C328.6 91.2 333.74 86.65 339.82 86.65C342.37 86.65 344.32 87.29 345.73 88.65V78.79H355.33V78.79ZM345.89 98.68C345.89 95.66 344.23 94.13 342.11 94.13C339.99 94.13 338.33 95.66 338.33 98.68C338.33 101.7 339.99 103.27 342.11 103.27C344.24 103.27 345.89 101.7 345.89 98.68Z" fill="#FF4E00"/>
</svg>
