<?xml version="1.0" encoding="utf-8"?>
<!-- Generator: Adobe Illustrator 25.0.1, SVG Export Plug-In . SVG Version: 6.00 Build 0)  -->
<svg version="1.2" baseProfile="tiny" id="Camada_1"
	 xmlns="http://www.w3.org/2000/svg" xmlns:xlink="http://www.w3.org/1999/xlink" x="0px" y="0px" viewBox="0 0 205 53"
	 overflow="visible" xml:space="preserve">
<g>
	<path fill="#212121" d="M44.38,26.89c1.84-1.26,3.29-2.83,4.35-4.73c1.06-1.89,1.65-3.95,1.77-6.18c0.12-2.22-0.41-4.28-1.57-6.18
		c-1.16-1.89-3.03-3.47-5.6-4.73S37.3,3.18,32.97,3.18c-3.25,0-6.2,0.49-8.85,1.48s-5,2.29-7.05,3.92
		c-2.05,1.62-3.78,3.48-5.19,5.57S9.4,18.36,8.69,20.5c-0.72,2.15-1.08,4.26-1.1,6.35s0.33,3.94,1.04,5.57
		c0.72,1.62,1.82,2.93,3.31,3.92s3.37,1.48,5.66,1.48c0.93,0,1.84-0.15,2.73-0.46c0.89-0.31,1.68-0.73,2.38-1.28
		c0.7-0.54,1.26-1.19,1.68-1.94c0.43-0.75,0.64-1.6,0.64-2.52c0-1.39-0.41-2.4-1.22-3.02s-1.71-0.92-2.7-0.9s-1.89,0.33-2.7,0.93
		c-0.74,0.55-1.14,1.28-1.21,2.2c-0.01,0.14,0.12,0.27,0.26,0.27c1.06,0.03,1.83,0.25,2.31,0.66c0.52,0.45,0.79,0.94,0.81,1.48
		c0.02,0.54-0.16,1.04-0.55,1.48s-0.89,0.67-1.51,0.67c-1.35,0-2.45-0.73-3.28-2.2c-0.83-1.47-1.33-3.31-1.51-5.51
		c-0.17-2.2,0.01-4.59,0.55-7.17c0.54-2.57,1.51-4.96,2.9-7.17c1.39-2.2,3.25-4.04,5.57-5.51s5.14-2.2,8.47-2.2
		c2.48,0,4.55,0.38,6.24,1.13C38.84,7.37,40,8.12,40.94,9c0.34,0.32,0.65,0.67,0.94,1.05l0.23,0.3c0.17,0.22,0.34,0.45,0.49,0.7
		c0.91,1.45,1.46,3.04,1.65,4.78c0.21,1.88,0.1,3.63-0.35,5.25c-0.45,1.62-1.15,2.98-2.12,4.06c-0.97,1.08-2.11,1.62-3.42,1.62
		c-0.5,0-1.03-0.07-1.57-0.2c-0.45-0.11-0.94-0.29-1.47-0.52c-0.12-0.05-0.19-0.19-0.15-0.32c1.15-3.8,2.65-7.79,5.14-11.62
		c0.15-0.24-0.12-0.51-0.35-0.35c-5.28,3.46-7.7,8.87-8.99,12.84c-1.36,4.21-8.22,22.02-18.01,22.02c-2.59,0-4.49-0.63-5.89-1.55
		c-1.24-0.82-1.98-2.22-2.02-3.7c-0.02-0.56,0.36-1.05,0.87-1.29c0.71-0.32,1.59-0.97,1.59-2.18c0-2.02-3.11-4.33-4.88-1.34
		s0,9.11,6.52,10.87c6.52,1.77,16.85-2.45,20.93-8.83c2-3.13,2.99-7.4,4.29-12.12c0.04-0.14,0.18-0.22,0.32-0.18
		c1.08,0.33,2.24,0.5,3.49,0.5C40.48,28.78,42.54,28.15,44.38,26.89z"/>
	<path fill="#212121" d="M120.37,24.04c-0.27-0.87-0.77-1.55-1.48-2.04c-0.71-0.49-1.72-0.74-3.01-0.74c-0.95,0-1.91,0.25-2.88,0.74
		c-0.97,0.49-1.89,1.17-2.76,2.04s-1.65,1.89-2.35,3.06s-1.23,2.42-1.61,3.75c-0.37,1.33-0.63,2.58-0.77,3.75
		c-0.01,0.11-0.01,0.21-0.02,0.32c-0.39,0.8-0.85,1.35-1.38,1.64c-0.56,0.31-1.03,0.46-1.4,0.46c-0.51,0-0.7-0.39-0.56-1.17
		s0.42-1.75,0.84-2.91s0.89-2.42,1.4-3.8s0.88-2.65,1.1-3.8c0.22-1.16,0.2-2.13-0.05-2.91c-0.25-0.78-0.93-1.17-2.02-1.17
		c-0.82,0-1.6,0.28-2.35,0.84c-0.58,0.44-1.14,0.97-1.69,1.6c-0.15,0.18-0.44,0.08-0.45-0.15c-0.03-0.8-0.22-1.36-0.57-1.68
		c-0.44-0.41-1-0.61-1.68-0.61c-0.71,0-1.4,0.21-2.07,0.64c-0.66,0.43-1.28,0.98-1.86,1.66l0.61-1.96c0.05-0.17-0.07-0.33-0.24-0.33
		h-4.1c-0.11,0-0.21,0.07-0.25,0.18l-4.13,13.92c-0.35,0.58-0.75,1.01-1.2,1.28c-0.6,0.36-1.08,0.48-1.45,0.38
		c-0.27-0.07-0.46-0.28-0.56-0.64s0.05-1.18,0.46-2.48c0.2-0.68,0.51-1.69,0.92-3.04c0.41-1.34,0.82-2.7,1.22-4.06
		c0.46-1.53,0.94-3.16,1.46-4.87c0.04-0.13-0.02-0.27-0.15-0.32c-1.07-0.44-2.25-0.59-3.54-0.47c-1.38,0.14-2.76,0.56-4.13,1.28
		c-1.18,0.61-2.29,1.44-3.36,2.46c-0.02,0.02-0.05,0.04-0.09,0.06c-0.42,0.16-0.84,0.28-1.28,0.32c-0.54,0.05-1.02-0.07-1.43-0.36
		s-0.71-0.77-0.89-1.43c-0.16-0.56-0.18-1.31-0.06-2.26c0.03-0.22-0.21-0.37-0.4-0.25l-3.91,2.59l0.61-1.96
		c0.05-0.17-0.07-0.33-0.24-0.33h-4.1c-0.11,0-0.21,0.07-0.25,0.18l-4.15,13.86c-0.35,0.61-0.76,1.07-1.23,1.35
		c-0.6,0.36-1.08,0.48-1.45,0.38c-0.27-0.07-0.46-0.28-0.56-0.64c-0.1-0.36,0.05-1.18,0.46-2.48c0.2-0.68,0.51-1.69,0.92-3.04
		c0.41-1.34,0.82-2.7,1.22-4.06c0.46-1.53,0.94-3.16,1.46-4.87c0.04-0.13-0.02-0.27-0.15-0.32c-1.07-0.44-2.25-0.59-3.54-0.47
		c-1.38,0.14-2.76,0.56-4.13,1.28c-1.38,0.71-2.68,1.71-3.9,2.99s-2.23,2.82-3.01,4.62c-0.78,1.77-1.32,3.32-1.61,4.64
		c-0.29,1.33-0.38,2.42-0.28,3.29c0.1,0.87,0.37,1.51,0.82,1.94c0.44,0.43,0.99,0.64,1.63,0.64c0.92,0,1.85-0.26,2.81-0.79
		c0.79-0.44,1.51-0.96,2.13-1.55c0.15-0.14,0.39-0.06,0.42,0.15c0.12,0.81,0.41,1.36,0.86,1.66c0.54,0.36,1.12,0.54,1.74,0.54
		c0.44,0,0.94-0.1,1.51-0.31c0.56-0.2,1.14-0.54,1.74-1c0.48-0.37,0.94-0.86,1.39-1.41l-0.76,2.53c-0.05,0.16,0.07,0.33,0.25,0.33
		h4.11c0.11,0,0.21-0.07,0.25-0.18l4.44-14.92c0.14,1.09,0.47,1.9,1,2.42c0.53,0.53,1.19,0.77,1.99,0.71
		c0.8-0.05,1.71-0.39,2.73-1.02c0.42-0.26,0.86-0.59,1.29-0.97c-0.73,0.98-1.38,2.07-1.91,3.3c-0.78,1.77-1.32,3.32-1.61,4.64
		c-0.29,1.33-0.38,2.42-0.28,3.29s0.37,1.51,0.82,1.94c0.44,0.43,0.99,0.64,1.63,0.64c0.92,0,1.85-0.26,2.81-0.79
		c0.79-0.44,1.51-0.96,2.13-1.55c0.15-0.14,0.39-0.06,0.42,0.15c0.12,0.81,0.41,1.36,0.86,1.66c0.54,0.36,1.12,0.54,1.74,0.54
		c0.44,0,0.94-0.1,1.51-0.31c0.56-0.2,1.14-0.54,1.74-1c0.48-0.37,0.93-0.85,1.38-1.39l-0.75,2.52c-0.05,0.16,0.07,0.33,0.25,0.33
		h4.06c0.11,0,0.21-0.07,0.25-0.18l3.97-13.26c0.01-0.02,0.01-0.04,0.02-0.05c0.37-0.67,0.72-1.24,1.06-1.71
		c0.34-0.48,0.7-0.7,1.07-0.66c0.14,0.03,0.24,0.08,0.31,0.15s0.09,0.2,0.08,0.41c-0.02,0.2-0.08,0.5-0.18,0.89
		s-0.25,0.93-0.46,1.61c-0.1,0.34-0.24,0.78-0.41,1.33c-0.17,0.55-0.35,1.15-0.54,1.81s-0.39,1.35-0.61,2.07
		c-0.22,0.71-0.43,1.43-0.64,2.14c-0.48,1.54-0.98,3.2-1.49,4.98c-0.05,0.16,0.08,0.33,0.25,0.33h4.06c0.11,0,0.21-0.07,0.25-0.18
		l3.77-12.48l0.15-0.51c0.37-0.71,0.74-1.32,1.1-1.81s0.69-0.74,1-0.74c0.27,0,0.38,0.22,0.33,0.66c-0.05,0.44-0.2,1.04-0.43,1.79
		c-0.24,0.75-0.54,1.59-0.89,2.53c-0.36,0.94-0.7,1.9-1.02,2.88c-0.32,0.99-0.59,1.95-0.79,2.88c-0.2,0.94-0.28,1.78-0.23,2.53
		c0.05,0.75,0.27,1.34,0.66,1.79c0.39,0.44,1.03,0.66,1.91,0.66c0.44,0,0.94-0.1,1.51-0.31c0.56-0.2,1.13-0.54,1.71-1
		s1.15-1.05,1.71-1.79c0.2-0.27,0.39-0.56,0.58-0.87c0.04,0.38,0.11,0.74,0.21,1.07c0.27,0.87,0.77,1.55,1.48,2.04
		c0.71,0.49,1.72,0.74,3.01,0.74c0.92,0,1.85-0.25,2.81-0.74c0.95-0.49,1.86-1.17,2.73-2.04s1.66-1.89,2.37-3.06
		c0.71-1.17,1.28-2.42,1.68-3.75c0.37-1.33,0.63-2.58,0.77-3.75C120.71,25.92,120.64,24.9,120.37,24.04z M50.71,33.91
		c-0.19,0.58-0.34,1.11-0.44,1.59c-0.01,0.06-0.04,0.11-0.09,0.15c-0.26,0.19-0.57,0.4-0.95,0.64c-0.41,0.25-0.78,0.38-1.12,0.38
		c-0.44,0-0.71-0.31-0.79-0.94c-0.09-0.63-0.03-1.43,0.15-2.4c0.19-0.97,0.49-2.01,0.92-3.11c0.42-1.11,0.89-2.14,1.4-3.11
		c0.51-0.97,1.05-1.77,1.63-2.4s1.14-0.94,1.68-0.94c0.2,0,0.41,0.03,0.61,0.1L50.71,33.91z M77.25,33.91
		c-0.19,0.58-0.34,1.11-0.44,1.59c-0.01,0.06-0.04,0.11-0.09,0.15c-0.26,0.19-0.57,0.4-0.95,0.64c-0.41,0.25-0.78,0.38-1.12,0.38
		c-0.44,0-0.71-0.31-0.79-0.94c-0.09-0.63-0.03-1.43,0.15-2.4c0.19-0.97,0.49-2.01,0.92-3.11c0.42-1.11,0.89-2.14,1.4-3.11
		c0.51-0.97,1.05-1.77,1.63-2.4c0.58-0.63,1.14-0.94,1.68-0.94c0.2,0,0.41,0.03,0.61,0.1L77.25,33.91z M115.68,27.53
		c-0.17,1.09-0.43,2.25-0.79,3.5c-0.36,1.24-0.76,2.41-1.2,3.5c-0.44,1.09-0.89,1.99-1.35,2.71s-0.89,1.07-1.3,1.07
		c-0.38,0-0.6-0.36-0.66-1.07c-0.07-0.71-0.03-1.62,0.13-2.71c0.15-1.09,0.39-2.25,0.71-3.5c0.32-1.24,0.7-2.41,1.12-3.5
		c0.42-1.09,0.88-1.99,1.35-2.71c0.48-0.71,0.94-1.07,1.38-1.07c0.44,0,0.7,0.36,0.77,1.07C115.9,25.54,115.85,26.44,115.68,27.53z"
		/>
	<path fill="#212121" d="M159.29,31.38c-0.46,0.87-0.97,1.73-1.53,2.6s-1.14,1.63-1.74,2.27c-0.6,0.65-1.15,0.97-1.66,0.97
		c-0.55,0-0.83-0.43-0.84-1.3c-0.02-0.87,0.26-2.17,0.84-3.9l2.45-8.09c0.03-0.11,0.13-0.18,0.25-0.18h3.43
		c0.14,0,0.26-0.11,0.26-0.26v-1.78c0-0.14-0.11-0.26-0.26-0.26h-2.61c-0.17,0-0.29-0.17-0.24-0.34c0.3-0.97,0.58-1.9,0.84-2.8
		c0.29-1,0.55-1.9,0.79-2.68l0.67-2.22c0.05-0.16-0.07-0.33-0.25-0.33h-4.06c-0.11,0-0.21,0.07-0.25,0.18l-2.44,8.01
		c-0.03,0.11-0.13,0.18-0.25,0.18h-2.1c-0.14,0-0.26,0.11-0.26,0.26v1.78c0,0.14,0.11,0.26,0.26,0.26h1.23
		c0.17,0,0.3,0.17,0.25,0.33l-2.45,7.94c-0.36,1.15-0.58,2.18-0.7,3.11c-0.37,0.68-0.81,1.17-1.32,1.43
		c-0.6,0.31-1.03,0.46-1.3,0.46c-0.54,0-0.75-0.39-0.61-1.17s0.42-1.75,0.84-2.91s0.89-2.42,1.4-3.8s0.89-2.65,1.12-3.8
		c0.24-1.16,0.23-2.13-0.03-2.91c-0.25-0.78-0.93-1.17-2.02-1.17c-0.89,0-1.71,0.3-2.48,0.89c-0.77,0.6-1.49,1.37-2.17,2.32
		l0.87-2.88c0.05-0.16-0.07-0.33-0.25-0.33h-4.11c-0.11,0-0.21,0.07-0.25,0.18l-4.14,13.85c-0.35,0.61-0.77,1.07-1.24,1.35
		c-0.6,0.36-1.05,0.48-1.35,0.38c-0.14-0.03-0.26-0.09-0.38-0.18c-0.12-0.08-0.2-0.24-0.26-0.46c-0.05-0.22-0.04-0.53,0.03-0.92
		c0.07-0.39,0.2-0.91,0.41-1.56c0.2-0.68,0.52-1.72,0.95-3.11c0.43-1.4,0.86-2.81,1.3-4.24c0.48-1.54,0.99-3.19,1.53-4.97
		c0.05-0.16-0.07-0.34-0.24-0.34h-4.06c-0.11,0-0.21,0.07-0.24,0.18l-3.87,12.48l-0.1,0.36c-0.27,0.68-0.6,1.31-1,1.89
		c-0.39,0.58-0.69,0.87-0.89,0.87c-0.17,0-0.3-0.2-0.38-0.59c-0.09-0.39,0.08-1.23,0.49-2.53c0.2-0.68,0.51-1.72,0.92-3.11
		c0.41-1.39,0.83-2.81,1.28-4.24c0.45-1.54,0.94-3.19,1.48-4.97c0.05-0.16-0.07-0.34-0.24-0.34h-4.06c-0.11,0-0.21,0.07-0.25,0.18
		l-3.77,12.48c-0.41,1.36-0.61,2.48-0.61,3.34c0,0.87,0.12,1.54,0.36,2.02s0.57,0.81,1,1s0.86,0.28,1.3,0.28
		c0.78,0,1.48-0.27,2.09-0.82c0.61-0.54,1.21-1.34,1.79-2.4c0,0.65,0.07,1.17,0.2,1.58c0.14,0.41,0.33,0.73,0.59,0.97
		c0.25,0.24,0.54,0.41,0.87,0.51c0.32,0.1,0.65,0.15,1,0.15c0.48,0,1-0.1,1.56-0.31c0.56-0.2,1.13-0.54,1.71-1
		c0.46-0.36,0.91-0.84,1.36-1.37l-0.75,2.5c-0.05,0.16,0.07,0.33,0.25,0.33h4.11c0.11,0,0.21-0.07,0.25-0.18l3.16-10.52
		c0-0.01,0.01-0.02,0.01-0.03c0.24-0.57,0.49-1.17,0.76-1.77c0.27-0.61,0.54-1.16,0.82-1.66c0.27-0.49,0.56-0.9,0.87-1.22
		s0.59-0.49,0.87-0.49c0.37,0,0.46,0.39,0.25,1.17c-0.2,0.78-0.52,1.75-0.94,2.91c-0.43,1.16-0.88,2.42-1.35,3.78
		c-0.48,1.36-0.8,2.62-0.97,3.78s-0.1,2.13,0.2,2.91c0.31,0.78,1.04,1.17,2.19,1.17c0.44,0,0.94-0.1,1.51-0.31
		c0.56-0.2,1.14-0.54,1.74-1c0.59-0.46,1.16-1.05,1.71-1.79c0.16-0.21,0.31-0.44,0.46-0.68c0.03,0.59,0.12,1.12,0.28,1.58
		c0.53,1.46,1.56,2.19,3.09,2.19c0.95,0,1.89-0.43,2.81-1.28s1.78-1.86,2.58-3.04c0.8-1.17,1.51-2.4,2.12-3.68
		c0.61-1.28,1.07-2.32,1.38-3.14h-0.82C160.08,29.86,159.75,30.52,159.29,31.38z"/>
	<path fill="#212121" d="M190.82,22.21l5.71-13.31h-8.07l-5.66,13.18h-12.14c0,0-3.53,8.57-3.65,8.57s12.25,0,12.14,0
		c-0.12,0-5.69,13.44-5.69,13.44h7.93l5.75-13.31h12.16l3.7-8.57C203,22.21,190.82,22.21,190.82,22.21z"/>
</g>
</svg>
